mtllib Sin título-1 copia.mtl
v 5.698853 4.352402 0.000000
v 5.003100 4.998199 0.000000
v 168.997498 102.994698 0.000000
v 166.745956 99.073975 0.000000
v 168.954300 98.837601 0.000000
v 164.705322 96.200577 0.000000
v 168.188400 95.114304 0.000000
v 162.753845 93.961906 0.000000
v 166.776291 91.790604 0.000000
v 160.732147 92.038048 0.000000
v 164.797195 88.823303 0.000000
v 158.507629 90.240349 0.000000
v 162.330292 86.175499 0.000000
v 155.996429 88.471634 0.000000
v 159.451202 83.805801 0.000000
v 153.244751 86.737427 0.000000
v 156.238190 81.672798 0.000000
v 146.640198 83.042297 0.000000
v 149.129089 77.957596 0.000000
v 124.133308 71.218018 0.000000
v 126.116096 67.435699 0.000000
v 35.382549 18.291534 0.000000
v 37.300499 14.577805 0.000000
v 24.683254 12.753799 0.000000
v 25.953300 9.556702 0.000000
v 14.174656 7.817474 0.000000
v 14.825700 5.624603 0.000000
v 4.005000 3.004700 0.000000
v 5.003100 4.998199 0.000000
v 168.997498 102.994698 0.000000
v 5.003100 4.998199 -99.989998
v 168.997498 102.994698 -99.989998
v 168.997498 102.994698 0.000000
v 168.954300 98.837601 0.000000
v 168.188400 95.114304 0.000000
v 166.776291 91.790604 0.000000
v 164.797195 88.823303 0.000000
v 162.330292 86.175499 0.000000
v 159.451202 83.805801 0.000000
v 156.238190 81.672798 0.000000
v 149.129089 77.957596 0.000000
v 126.116096 67.435699 0.000000
v 37.300499 14.577805 0.000000
v 25.953300 9.556702 0.000000
v 14.825700 5.624603 0.000000
v 4.005000 3.004700 0.000000
v 168.997498 102.994698 -99.989998
v 168.954300 98.837601 -99.989998
v 168.188400 95.114304 -99.989998
v 166.776291 91.790604 -99.989998
v 164.797195 88.823303 -99.989998
v 162.330292 86.175499 -99.989998
v 159.451202 83.805801 -99.989998
v 156.238190 81.672798 -99.989998
v 149.129089 77.957596 -99.989998
v 126.116096 67.435699 -99.989998
v 37.300499 14.577805 -99.989998
v 25.953300 9.556702 -99.989998
v 14.825700 5.624603 -99.989998
v 4.005000 3.004700 -99.989998
v 4.005000 3.004700 0.000000
v 5.003100 4.998199 0.000000
v 4.005000 3.004700 -99.989998
v 5.003100 4.998199 -99.989998
v 5.698853 4.352402 -99.989998
v 5.003100 4.998199 -99.989998
v 168.997498 102.994698 -99.989998
v 166.745956 99.073975 -99.989998
v 168.954300 98.837601 -99.989998
v 164.705322 96.200577 -99.989998
v 168.188400 95.114304 -99.989998
v 162.753845 93.961906 -99.989998
v 166.776291 91.790604 -99.989998
v 160.732147 92.038048 -99.989998
v 164.797195 88.823303 -99.989998
v 158.507629 90.240349 -99.989998
v 162.330292 86.175499 -99.989998
v 155.996429 88.471634 -99.989998
v 159.451202 83.805801 -99.989998
v 153.244751 86.737427 -99.989998
v 156.238190 81.672798 -99.989998
v 146.640198 83.042297 -99.989998
v 149.129089 77.957596 -99.989998
v 124.133308 71.218018 -99.989998
v 126.116096 67.435699 -99.989998
v 35.382549 18.291534 -99.989998
v 37.300499 14.577805 -99.989998
v 24.683254 12.753799 -99.989998
v 25.953300 9.556702 -99.989998
v 14.174656 7.817474 -99.989998
v 14.825700 5.624603 -99.989998
v 4.005000 3.004700 -99.989998
vt 0.010266 0.013478
vt 0.006049 0.019937
vt 1.000000 1.000000
vt 0.986354 0.960789
vt 0.999738 0.958425
vt 0.973986 0.932052
vt 0.995096 0.921188
vt 0.962158 0.909663
vt 0.986538 0.887948
vt 0.949905 0.890423
vt 0.974542 0.858272
vt 0.936422 0.872444
vt 0.959591 0.831791
vt 0.921202 0.854755
vt 0.942141 0.808092
vt 0.904525 0.837411
vt 0.922667 0.786760
vt 0.864495 0.800456
vt 0.879580 0.749604
vt 0.728083 0.682201
vt 0.740101 0.644374
vt 0.190176 0.152884
vt 0.201800 0.115743
vt 0.125328 0.097501
vt 0.133026 0.065527
vt 0.061637 0.048133
vt 0.065583 0.026202
vt 0.000000 0.000000
vt 1.000000 1.000000
vt 0.512194 1.000000
vt 1.000000 0.500000
vt 0.512194 0.500000
vt 0.512194 1.000000
vt 0.501579 1.000000
vt 0.491873 1.000000
vt 0.482652 1.000000
vt 0.473544 1.000000
vt 0.464304 1.000000
vt 0.454783 1.000000
vt 0.444935 1.000000
vt 0.424454 1.000000
vt 0.359842 1.000000
vt 0.095939 1.000000
vt 0.064255 1.000000
vt 0.034120 1.000000
vt 0.005692 1.000000
vt 0.512194 0.500000
vt 0.501579 0.500000
vt 0.491873 0.500000
vt 0.482652 0.500000
vt 0.473544 0.500000
vt 0.464304 0.500000
vt 0.454783 0.500000
vt 0.444935 0.500000
vt 0.424454 0.500000
vt 0.359842 0.500000
vt 0.095939 0.500000
vt 0.064255 0.500000
vt 0.034120 0.500000
vt 0.005692 0.500000
vt 0.005692 1.000000
vt 0.000000 1.000000
vt 0.005692 0.500000
vt 0.000000 0.500000
vt 0.010266 0.013478
vt 0.006049 0.019937
vt 1.000000 1.000000
vt 0.986354 0.960789
vt 0.999738 0.958425
vt 0.973986 0.932052
vt 0.995096 0.921188
vt 0.962158 0.909663
vt 0.986538 0.887948
vt 0.949905 0.890423
vt 0.974542 0.858272
vt 0.936422 0.872444
vt 0.959591 0.831791
vt 0.921202 0.854755
vt 0.942141 0.808092
vt 0.904525 0.837411
vt 0.922667 0.786760
vt 0.864495 0.800456
vt 0.879580 0.749604
vt 0.728083 0.682201
vt 0.740101 0.644374
vt 0.190176 0.152884
vt 0.201800 0.115743
vt 0.125328 0.097501
vt 0.133026 0.065527
vt 0.061637 0.048133
vt 0.065583 0.026202
vt 0.000000 0.000000
vn 0.000000 -0.000000 1.000000
vn 0.000000 -0.000000 1.000000
vn 0.000000 -0.000000 1.000000
vn 0.000000 -0.000000 1.000000
vn 0.000000 -0.000000 1.000000
vn 0.000000 -0.000000 1.000000
vn 0.000000 -0.000000 1.000000
vn 0.000000 -0.000000 1.000000
vn 0.000000 -0.000000 1.000000
vn 0.000000 -0.000000 1.000000
vn 0.000000 -0.000000 1.000000
vn 0.000000 -0.000000 1.000000
vn 0.000000 -0.000000 1.000000
vn 0.000000 -0.000000 1.000000
vn 0.000000 -0.000000 1.000000
vn 0.000000 -0.000000 1.000000
vn 0.000000 -0.000000 1.000000
vn 0.000000 -0.000000 1.000000
vn 0.000000 -0.000000 1.000000
vn 0.000000 -0.000000 1.000000
vn 0.000000 -0.000000 1.000000
vn 0.000000 -0.000000 1.000000
vn 0.000000 -0.000000 1.000000
vn 0.000000 -0.000000 1.000000
vn 0.000000 -0.000000 1.000000
vn 0.000000 -0.000000 1.000000
vn 0.000000 -0.000000 1.000000
vn 0.000000 -0.000000 1.000000
vn -0.512955 0.858416 -0.000000
vn -0.512955 0.858416 -0.000000
vn -0.512955 0.858416 -0.000000
vn -0.512955 0.858416 -0.000000
vn 0.999946 -0.010391 0.000000
vn 0.994320 -0.106431 0.000000
vn 0.954650 -0.297730 0.000000
vn 0.879977 -0.475016 0.000000
vn 0.784363 -0.620303 0.000000
vn 0.685071 -0.728476 0.000000
vn 0.595072 -0.803672 0.000000
vn 0.508818 -0.860874 0.000000
vn 0.439642 -0.898173 0.000000
vn 0.464296 -0.885680 0.000000
vn 0.458866 -0.888506 0.000000
vn 0.369186 -0.929356 0.000000
vn 0.284619 -0.958641 0.000000
vn 0.235320 -0.971918 0.000000
vn 0.999946 -0.010391 0.000000
vn 0.994320 -0.106431 0.000000
vn 0.954650 -0.297730 0.000000
vn 0.879977 -0.475016 0.000000
vn 0.784363 -0.620303 0.000000
vn 0.685071 -0.728476 0.000000
vn 0.595072 -0.803672 0.000000
vn 0.508818 -0.860874 0.000000
vn 0.439642 -0.898173 0.000000
vn 0.464296 -0.885680 0.000000
vn 0.458866 -0.888506 0.000000
vn 0.369186 -0.929356 0.000000
vn 0.284619 -0.958641 0.000000
vn 0.235320 -0.971918 0.000000
vn -0.894185 0.447698 -0.000000
vn -0.894185 0.447698 -0.000000
vn -0.894185 0.447698 -0.000000
vn -0.894185 0.447698 -0.000000
vn 0.000000 -0.000000 -1.000000
vn 0.000000 -0.000000 -1.000000
vn 0.000000 -0.000000 -1.000000
vn 0.000000 -0.000000 -1.000000
vn 0.000000 -0.000000 -1.000000
vn 0.000000 -0.000000 -1.000000
vn 0.000000 -0.000000 -1.000000
vn 0.000000 -0.000000 -1.000000
vn 0.000000 -0.000000 -1.000000
vn 0.000000 -0.000000 -1.000000
vn 0.000000 -0.000000 -1.000000
vn 0.000000 -0.000000 -1.000000
vn 0.000000 -0.000000 -1.000000
vn 0.000000 -0.000000 -1.000000
vn 0.000000 -0.000000 -1.000000
vn 0.000000 -0.000000 -1.000000
vn 0.000000 -0.000000 -1.000000
vn 0.000000 -0.000000 -1.000000
vn 0.000000 -0.000000 -1.000000
vn 0.000000 -0.000000 -1.000000
vn 0.000000 -0.000000 -1.000000
vn 0.000000 -0.000000 -1.000000
vn 0.000000 -0.000000 -1.000000
vn 0.000000 -0.000000 -1.000000
vn 0.000000 -0.000000 -1.000000
vn 0.000000 -0.000000 -1.000000
vn 0.000000 -0.000000 -1.000000
vn 0.000000 -0.000000 -1.000000
usemtl Capa 1 Material de inflación frontal
f 14/14/14 12/12/12 20/20/20
f 5/5/5 3/3/3 4/4/4
f 6/6/6 7/7/7 4/4/4
f 8/8/8 9/9/9 6/6/6
f 10/10/10 11/11/11 8/8/8
f 12/12/12 13/13/13 10/10/10
f 14/14/14 15/15/15 12/12/12
f 16/16/16 17/17/17 14/14/14
f 19/19/19 17/17/17 18/18/18
f 20/20/20 21/21/21 18/18/18
f 23/23/23 21/21/21 22/22/22
f 25/25/25 23/23/23 24/24/24
f 27/27/27 25/25/25 26/26/26
f 28/28/28 27/27/27 1/1/1
f 2/2/2 28/28/28 1/1/1
f 14/14/14 20/20/20 16/16/16
f 12/12/12 10/10/10 20/20/20
f 18/18/18 16/16/16 20/20/20
f 20/20/20 10/10/10 1/1/1
f 1/1/1 26/26/26 20/20/20
f 10/10/10 8/8/8 1/1/1
f 26/26/26 24/24/24 20/20/20
f 22/22/22 20/20/20 24/24/24
f 8/8/8 6/6/6 1/1/1
f 6/6/6 4/4/4 1/1/1
f 4/4/4 3/3/3 1/1/1
f 2/2/2 1/1/1 3/3/3
f 5/5/5 4/4/4 7/7/7
f 7/7/7 6/6/6 9/9/9
f 9/9/9 8/8/8 11/11/11
f 11/11/11 10/10/10 13/13/13
f 13/13/13 12/12/12 15/15/15
f 15/15/15 14/14/14 17/17/17
f 16/16/16 18/18/18 17/17/17
f 19/19/19 18/18/18 21/21/21
f 20/20/20 22/22/22 21/21/21
f 22/22/22 24/24/24 23/23/23
f 24/24/24 26/26/26 25/25/25
f 26/26/26 1/1/1 27/27/27
usemtl Capa 1 Material de bisel frontal
f 1/1/1 1/1/1 1/1/1
usemtl Capa 1 Material de extrusión
f 31/31/31 29/29/29 30/30/30
f 31/31/31 30/30/30 32/32/32
f 47/47/47 33/33/33 34/34/34
f 47/47/47 34/34/34 48/48/48
f 48/48/48 34/34/34 35/35/35
f 48/48/48 35/35/35 49/49/49
f 49/49/49 35/35/35 36/36/36
f 49/49/49 36/36/36 50/50/50
f 50/50/50 36/36/36 37/37/37
f 50/50/50 37/37/37 51/51/51
f 51/51/51 37/37/37 38/38/38
f 51/51/51 38/38/38 52/52/52
f 52/52/52 38/38/38 39/39/39
f 52/52/52 39/39/39 53/53/53
f 53/53/53 39/39/39 40/40/40
f 53/53/53 40/40/40 54/54/54
f 54/54/54 40/40/40 41/41/41
f 54/54/54 41/41/41 55/55/55
f 55/55/55 41/41/41 42/42/42
f 55/55/55 42/42/42 56/56/56
f 56/56/56 42/42/42 43/43/43
f 56/56/56 43/43/43 57/57/57
f 57/57/57 43/43/43 44/44/44
f 57/57/57 44/44/44 58/58/58
f 58/58/58 44/44/44 45/45/45
f 58/58/58 45/45/45 59/59/59
f 59/59/59 45/45/45 46/46/46
f 59/59/59 46/46/46 60/60/60
f 63/63/63 61/61/61 62/62/62
f 63/63/63 62/62/62 64/64/64
usemtl Capa 1 Material de bisel posterior
f 1/1/1 1/1/1 1/1/1
usemtl Capa 1 Material de inflación posterior
f 76/76/76 78/78/78 84/84/84
f 67/67/67 69/69/69 68/68/68
f 71/71/71 70/70/70 68/68/68
f 73/73/73 72/72/72 70/70/70
f 75/75/75 74/74/74 72/72/72
f 77/77/77 76/76/76 74/74/74
f 79/79/79 78/78/78 76/76/76
f 81/81/81 80/80/80 78/78/78
f 81/81/81 83/83/83 82/82/82
f 85/85/85 84/84/84 82/82/82
f 85/85/85 87/87/87 86/86/86
f 87/87/87 89/89/89 88/88/88
f 89/89/89 91/91/91 90/90/90
f 91/91/91 92/92/92 65/65/65
f 92/92/92 66/66/66 65/65/65
f 84/84/84 78/78/78 80/80/80
f 74/74/74 76/76/76 84/84/84
f 80/80/80 82/82/82 84/84/84
f 74/74/74 84/84/84 65/65/65
f 90/90/90 65/65/65 84/84/84
f 72/72/72 74/74/74 65/65/65
f 88/88/88 90/90/90 84/84/84
f 84/84/84 86/86/86 88/88/88
f 70/70/70 72/72/72 65/65/65
f 68/68/68 70/70/70 65/65/65
f 67/67/67 68/68/68 65/65/65
f 65/65/65 66/66/66 67/67/67
f 68/68/68 69/69/69 71/71/71
f 70/70/70 71/71/71 73/73/73
f 72/72/72 73/73/73 75/75/75
f 74/74/74 75/75/75 77/77/77
f 76/76/76 77/77/77 79/79/79
f 78/78/78 79/79/79 81/81/81
f 82/82/82 80/80/80 81/81/81
f 82/82/82 83/83/83 85/85/85
f 86/86/86 84/84/84 85/85/85
f 88/88/88 86/86/86 87/87/87
f 90/90/90 88/88/88 89/89/89
f 65/65/65 90/90/90 91/91/91
