mtllib Sin título-3 copia.mtl
v 56.897926 132.122803 0.000000
v 52.469101 108.279510 0.000000
v 21.053530 117.964417 0.000000
v 19.974600 113.149414 0.000000
v 13.972819 118.350739 0.000000
v 12.845700 115.293213 0.000000
v 10.851757 118.713074 0.000000
v 9.785700 116.638702 0.000000
v 7.150500 118.201111 0.000000
v 7.887068 119.240417 0.000000
v 5.007600 119.998413 0.000000
v 39.439735 118.280151 0.000000
v 32.001297 124.997009 0.000000
v 147.065613 198.627441 0.000000
v 39.002399 211.000122 0.000000
v 175.026276 350.315430 0.000000
v 63.042301 373.614807 0.000000
v 169.141006 363.989380 0.000000
v 68.887794 395.283203 0.000000
v 162.400742 381.503479 0.000000
v 76.254295 416.000305 0.000000
v 158.971207 391.578094 0.000000
v 82.169998 429.242004 0.000000
v 155.612869 402.737488 0.000000
v 89.002800 441.998596 0.000000
v 154.120712 408.545837 0.000000
v 94.778999 450.941895 0.000000
v 104.282997 463.006409 0.000000
v 151.046387 423.362061 0.000000
v 138.000595 499.996399 0.000000
v 265.998596 430.997009 0.000000
v 243.007706 400.258911 0.000000
v 271.499390 425.445801 0.000000
v 231.936218 387.090881 0.000000
v 276.531281 419.054901 0.000000
v 210.920319 364.267761 0.000000
v 283.415405 408.473602 0.000000
v 201.401276 235.810791 0.000000
v 340.826385 307.821198 0.000000
v 234.977539 208.819794 0.000000
v 362.094299 262.070618 0.000000
v 261.494781 185.770355 0.000000
v 376.453796 223.717102 0.000000
v 274.061798 173.945465 0.000000
v 382.862701 201.380005 0.000000
v 335.250854 112.515533 0.000000
v 385.997406 186.998901 0.000000
v 639.998962 227.997498 0.000000
v 621.236633 119.483398 0.000000
v 932.991272 67.001892 0.000000
v 542.644775 106.446045 0.000000
v 540.000000 0.002289 0.000000
v 182.583542 335.244019 0.000000
v 201.255569 235.919189 0.000000
v 932.991272 67.001892 0.000000
v 540.000000 0.002289 0.000000
v 52.469101 108.279510 0.000000
v 19.974600 113.149414 0.000000
v 12.845700 115.293213 0.000000
v 9.785700 116.638702 0.000000
v 7.150500 118.201111 0.000000
v 5.007600 119.998413 0.000000
v 932.991272 67.001892 -499.994110
v 540.000000 0.002289 -499.994110
v 52.469101 108.279510 -499.994110
v 19.974600 113.149414 -499.994110
v 12.845700 115.293213 -499.994110
v 9.785700 116.638702 -499.994110
v 7.150500 118.201111 -499.994110
v 5.007600 119.998413 -499.994110
v 5.007600 119.998413 0.000000
v 32.001297 124.997009 0.000000
v 5.007600 119.998413 -499.994110
v 32.001297 124.997009 -499.994110
v 32.001297 124.997009 0.000000
v 39.002399 211.000122 0.000000
v 63.042301 373.614807 0.000000
v 68.887794 395.283203 0.000000
v 76.254295 416.000305 0.000000
v 82.169998 429.242004 0.000000
v 89.002800 441.998596 0.000000
v 94.778999 450.941895 0.000000
v 104.282997 463.006409 0.000000
v 138.000595 499.996399 0.000000
v 32.001297 124.997009 -499.994110
v 39.002399 211.000122 -499.994110
v 63.042301 373.614807 -499.994110
v 68.887794 395.283203 -499.994110
v 76.254295 416.000305 -499.994110
v 82.169998 429.242004 -499.994110
v 89.002800 441.998596 -499.994110
v 94.778999 450.941895 -499.994110
v 104.282997 463.006409 -499.994110
v 138.000595 499.996399 -499.994110
v 138.000595 499.996399 0.000000
v 265.998596 430.997009 0.000000
v 271.499390 425.445801 0.000000
v 276.531281 419.054901 0.000000
v 283.415405 408.473602 0.000000
v 340.826385 307.821198 0.000000
v 362.094299 262.070618 0.000000
v 376.453796 223.717102 0.000000
v 382.862701 201.380005 0.000000
v 385.997406 186.998901 0.000000
v 138.000595 499.996399 -499.994110
v 265.998596 430.997009 -499.994110
v 271.499390 425.445801 -499.994110
v 276.531281 419.054901 -499.994110
v 283.415405 408.473602 -499.994110
v 340.826385 307.821198 -499.994110
v 362.094299 262.070618 -499.994110
v 376.453796 223.717102 -499.994110
v 382.862701 201.380005 -499.994110
v 385.997406 186.998901 -499.994110
v 385.997406 186.998901 0.000000
v 639.998962 227.997498 0.000000
v 385.997406 186.998901 -499.994110
v 639.998962 227.997498 -499.994110
v 639.998962 227.997498 0.000000
v 932.991272 67.001892 0.000000
v 639.998962 227.997498 -499.994110
v 932.991272 67.001892 -499.994110
v 56.897926 132.122803 -499.994110
v 52.469101 108.279510 -499.994110
v 21.053530 117.964417 -499.994110
v 19.974600 113.149414 -499.994110
v 13.972819 118.350739 -499.994110
v 12.845700 115.293213 -499.994110
v 10.851757 118.713074 -499.994110
v 9.785700 116.638702 -499.994110
v 7.150500 118.201111 -499.994110
v 7.887068 119.240417 -499.994110
v 5.007600 119.998413 -499.994110
v 39.439735 118.280151 -499.994110
v 32.001297 124.997009 -499.994110
v 147.065613 198.627441 -499.994110
v 39.002399 211.000122 -499.994110
v 175.026276 350.315430 -499.994110
v 63.042301 373.614807 -499.994110
v 169.141006 363.989380 -499.994110
v 68.887794 395.283203 -499.994110
v 162.400742 381.503479 -499.994110
v 76.254295 416.000305 -499.994110
v 158.971207 391.578094 -499.994110
v 82.169998 429.242004 -499.994110
v 155.612869 402.737488 -499.994110
v 89.002800 441.998596 -499.994110
v 154.120712 408.545837 -499.994110
v 94.778999 450.941895 -499.994110
v 104.282997 463.006409 -499.994110
v 151.046387 423.362061 -499.994110
v 138.000595 499.996399 -499.994110
v 265.998596 430.997009 -499.994110
v 243.007706 400.258911 -499.994110
v 271.499390 425.445801 -499.994110
v 231.936218 387.090881 -499.994110
v 276.531281 419.054901 -499.994110
v 210.920319 364.267761 -499.994110
v 283.415405 408.473602 -499.994110
v 201.401276 235.810791 -499.994110
v 340.826385 307.821198 -499.994110
v 234.977539 208.819794 -499.994110
v 362.094299 262.070618 -499.994110
v 261.494781 185.770355 -499.994110
v 376.453796 223.717102 -499.994110
v 274.061798 173.945465 -499.994110
v 382.862701 201.380005 -499.994110
v 335.250854 112.515533 -499.994110
v 385.997406 186.998901 -499.994110
v 639.998962 227.997498 -499.994110
v 621.236633 119.483398 -499.994110
v 932.991272 67.001892 -499.994110
v 542.644775 106.446045 -499.994110
v 540.000000 0.002289 -499.994110
v 182.583542 335.244019 -499.994110
v 201.255569 235.919189 -499.994110
vt 0.055917 0.264244
vt 0.051145 0.216557
vt 0.017291 0.235927
vt 0.016129 0.226297
vt 0.009661 0.236700
vt 0.008446 0.230585
vt 0.006298 0.237424
vt 0.005149 0.233276
vt 0.002309 0.236400
vt 0.003103 0.238479
vt 0.000000 0.239995
vt 0.037104 0.236558
vt 0.029089 0.249992
vt 0.153082 0.397255
vt 0.036633 0.422001
vt 0.183213 0.700634
vt 0.062538 0.747234
vt 0.176871 0.727983
vt 0.068838 0.790571
vt 0.169608 0.763011
vt 0.076776 0.832006
vt 0.165912 0.783161
vt 0.083151 0.858490
vt 0.162293 0.805480
vt 0.090514 0.884003
vt 0.160685 0.817097
vt 0.096738 0.901890
vt 0.106980 0.926019
vt 0.157372 0.846730
vt 0.143314 1.000000
vt 0.281245 0.862000
vt 0.256470 0.800523
vt 0.287173 0.850897
vt 0.244539 0.774186
vt 0.292595 0.838115
vt 0.221893 0.728540
vt 0.300014 0.816952
vt 0.211635 0.471623
vt 0.361880 0.615645
vt 0.247817 0.417640
vt 0.384798 0.524143
vt 0.276392 0.371540
vt 0.400272 0.447435
vt 0.289934 0.347890
vt 0.407179 0.402760
vt 0.355872 0.225029
vt 0.410557 0.373998
vt 0.684270 0.455996
vt 0.664052 0.238965
vt 1.000000 0.134001
vt 0.579361 0.212890
vt 0.576511 0.000000
vt 0.191357 0.670491
vt 0.211478 0.471839
vt 1.000000 1.000000
vt 0.832915 1.000000
vt 0.623605 1.000000
vt 0.609834 1.000000
vt 0.606714 1.000000
vt 0.605313 1.000000
vt 0.604029 1.000000
vt 0.602857 1.000000
vt 1.000000 0.500000
vt 0.832915 0.500000
vt 0.623605 0.500000
vt 0.609834 0.500000
vt 0.606714 0.500000
vt 0.605313 0.500000
vt 0.604029 0.500000
vt 0.602857 0.500000
vt 0.602857 1.000000
vt 0.591351 1.000000
vt 0.602857 0.500000
vt 0.591351 0.500000
vt 0.591351 1.000000
vt 0.555187 1.000000
vt 0.486292 1.000000
vt 0.476885 1.000000
vt 0.467670 1.000000
vt 0.461592 1.000000
vt 0.455526 1.000000
vt 0.451064 1.000000
vt 0.444628 1.000000
vt 0.423650 1.000000
vt 0.591351 0.500000
vt 0.555187 0.500000
vt 0.486292 0.500000
vt 0.476885 0.500000
vt 0.467670 0.500000
vt 0.461592 0.500000
vt 0.455526 0.500000
vt 0.451064 0.500000
vt 0.444628 0.500000
vt 0.423650 0.500000
vt 0.423650 1.000000
vt 0.362706 1.000000
vt 0.359431 1.000000
vt 0.356022 1.000000
vt 0.350731 1.000000
vt 0.302166 1.000000
vt 0.281021 1.000000
vt 0.263857 1.000000
vt 0.254117 1.000000
vt 0.247948 1.000000
vt 0.423650 0.500000
vt 0.362706 0.500000
vt 0.359431 0.500000
vt 0.356022 0.500000
vt 0.350731 0.500000
vt 0.302166 0.500000
vt 0.281021 0.500000
vt 0.263857 0.500000
vt 0.254117 0.500000
vt 0.247948 0.500000
vt 0.247948 1.000000
vt 0.140115 1.000000
vt 0.247948 0.500000
vt 0.140115 0.500000
vt 0.140115 1.000000
vt 0.000000 1.000000
vt 0.140115 0.500000
vt 0.000000 0.500000
vt 0.055917 0.264244
vt 0.051145 0.216557
vt 0.017291 0.235927
vt 0.016129 0.226297
vt 0.009661 0.236700
vt 0.008446 0.230585
vt 0.006298 0.237424
vt 0.005149 0.233276
vt 0.002309 0.236400
vt 0.003103 0.238479
vt 0.000000 0.239995
vt 0.037104 0.236558
vt 0.029089 0.249992
vt 0.153082 0.397255
vt 0.036633 0.422001
vt 0.183213 0.700634
vt 0.062538 0.747234
vt 0.176871 0.727983
vt 0.068838 0.790571
vt 0.169608 0.763011
vt 0.076776 0.832006
vt 0.165912 0.783161
vt 0.083151 0.858490
vt 0.162293 0.805480
vt 0.090514 0.884003
vt 0.160685 0.817097
vt 0.096738 0.901890
vt 0.106980 0.926019
vt 0.157372 0.846730
vt 0.143314 1.000000
vt 0.281245 0.862000
vt 0.256470 0.800523
vt 0.287173 0.850897
vt 0.244539 0.774186
vt 0.292595 0.838115
vt 0.221893 0.728540
vt 0.300014 0.816952
vt 0.211635 0.471623
vt 0.361880 0.615645
vt 0.247817 0.417640
vt 0.384798 0.524143
vt 0.276392 0.371540
vt 0.400272 0.447435
vt 0.289934 0.347890
vt 0.407179 0.402760
vt 0.355872 0.225029
vt 0.410557 0.373998
vt 0.684270 0.455996
vt 0.664052 0.238965
vt 1.000000 0.134001
vt 0.579361 0.212890
vt 0.576511 0.000000
vt 0.191357 0.670491
vt 0.211478 0.471839
vn 0.000000 -0.000000 1.000000
vn 0.000000 -0.000000 1.000000
vn 0.000000 -0.000000 1.000000
vn 0.000000 -0.000000 1.000000
vn 0.000000 -0.000000 1.000000
vn 0.000000 -0.000000 1.000000
vn 0.000000 -0.000000 1.000000
vn 0.000000 -0.000000 1.000000
vn 0.000000 -0.000000 1.000000
vn 0.000000 -0.000000 1.000000
vn 0.000000 -0.000000 1.000000
vn 0.000000 -0.000000 1.000000
vn 0.000000 -0.000000 1.000000
vn 0.000000 -0.000000 1.000000
vn 0.000000 -0.000000 1.000000
vn 0.000000 -0.000000 1.000000
vn 0.000000 -0.000000 1.000000
vn 0.000000 -0.000000 1.000000
vn 0.000000 -0.000000 1.000000
vn 0.000000 -0.000000 1.000000
vn 0.000000 -0.000000 1.000000
vn 0.000000 -0.000000 1.000000
vn 0.000000 -0.000000 1.000000
vn 0.000000 -0.000000 1.000000
vn 0.000000 -0.000000 1.000000
vn 0.000000 -0.000000 1.000000
vn 0.000000 -0.000000 1.000000
vn 0.000000 -0.000000 1.000000
vn 0.000000 -0.000000 1.000000
vn 0.000000 -0.000000 1.000000
vn 0.000000 -0.000000 1.000000
vn 0.000000 -0.000000 1.000000
vn 0.000000 -0.000000 1.000000
vn 0.000000 -0.000000 1.000000
vn 0.000000 -0.000000 1.000000
vn 0.000000 -0.000000 1.000000
vn 0.000000 -0.000000 1.000000
vn 0.000000 -0.000000 1.000000
vn 0.000000 -0.000000 1.000000
vn 0.000000 -0.000000 1.000000
vn 0.000000 -0.000000 1.000000
vn 0.000000 -0.000000 1.000000
vn 0.000000 -0.000000 1.000000
vn 0.000000 -0.000000 1.000000
vn 0.000000 -0.000000 1.000000
vn 0.000000 -0.000000 1.000000
vn 0.000000 -0.000000 1.000000
vn 0.000000 -0.000000 1.000000
vn 0.000000 -0.000000 1.000000
vn 0.000000 -0.000000 1.000000
vn 0.000000 -0.000000 1.000000
vn 0.000000 -0.000000 1.000000
vn 0.000000 -0.000000 1.000000
vn 0.000000 -0.000000 1.000000
vn 0.168061 -0.985777 0.000000
vn -0.024839 -0.999692 0.000000
vn -0.182623 -0.983183 0.000000
vn -0.218658 -0.975802 0.000000
vn -0.345890 -0.938275 0.000000
vn -0.457089 -0.889421 0.000000
vn -0.578221 -0.815880 0.000000
vn -0.642619 -0.766186 0.000000
vn 0.168061 -0.985777 0.000000
vn -0.024839 -0.999692 0.000000
vn -0.182623 -0.983183 0.000000
vn -0.218658 -0.975802 0.000000
vn -0.345890 -0.938275 0.000000
vn -0.457089 -0.889421 0.000000
vn -0.578221 -0.815880 0.000000
vn -0.642619 -0.766186 0.000000
vn -0.182081 0.983284 -0.000000
vn -0.182081 0.983284 -0.000000
vn -0.182081 0.983284 -0.000000
vn -0.182081 0.983284 -0.000000
vn -0.996703 0.081137 -0.000000
vn -0.993509 0.113752 -0.000000
vn -0.979034 0.203699 -0.000000
vn -0.954575 0.297970 -0.000000
vn -0.928334 0.371747 -0.000000
vn -0.897846 0.440311 -0.000000
vn -0.861488 0.507779 -0.000000
vn -0.813675 0.581321 -0.000000
vn -0.762781 0.646657 -0.000000
vn -0.739041 0.673660 -0.000000
vn -0.996703 0.081137 -0.000000
vn -0.993509 0.113752 -0.000000
vn -0.979034 0.203699 -0.000000
vn -0.954575 0.297970 -0.000000
vn -0.928334 0.371747 -0.000000
vn -0.897846 0.440311 -0.000000
vn -0.861488 0.507779 -0.000000
vn -0.813675 0.581321 -0.000000
vn -0.762781 0.646657 -0.000000
vn -0.739041 0.673660 -0.000000
vn 0.474512 0.880249 0.000000
vn 0.598946 0.800789 0.000000
vn 0.749222 0.662319 0.000000
vn 0.812781 0.582570 0.000000
vn 0.853788 0.520620 0.000000
vn 0.888489 0.458898 0.000000
vn 0.922343 0.386373 0.000000
vn 0.949604 0.313453 0.000000
vn 0.969647 0.244510 0.000000
vn 0.977058 0.212973 0.000000
vn 0.474512 0.880249 0.000000
vn 0.598946 0.800789 0.000000
vn 0.749222 0.662319 0.000000
vn 0.812781 0.582570 0.000000
vn 0.853788 0.520620 0.000000
vn 0.888489 0.458898 0.000000
vn 0.922343 0.386373 0.000000
vn 0.949604 0.313453 0.000000
vn 0.969647 0.244510 0.000000
vn 0.977058 0.212973 0.000000
vn -0.159348 0.987222 -0.000000
vn -0.159348 0.987222 -0.000000
vn -0.159348 0.987222 -0.000000
vn -0.159348 0.987222 -0.000000
vn 0.481574 0.876406 0.000000
vn 0.481574 0.876406 0.000000
vn 0.481574 0.876406 0.000000
vn 0.481574 0.876406 0.000000
vn 0.000000 -0.000000 -1.000000
vn 0.000000 -0.000000 -1.000000
vn 0.000000 -0.000000 -1.000000
vn 0.000000 -0.000000 -1.000000
vn 0.000000 -0.000000 -1.000000
vn 0.000000 -0.000000 -1.000000
vn 0.000000 -0.000000 -1.000000
vn 0.000000 -0.000000 -1.000000
vn 0.000000 -0.000000 -1.000000
vn 0.000000 -0.000000 -1.000000
vn 0.000000 -0.000000 -1.000000
vn 0.000000 -0.000000 -1.000000
vn 0.000000 -0.000000 -1.000000
vn 0.000000 -0.000000 -1.000000
vn 0.000000 -0.000000 -1.000000
vn 0.000000 -0.000000 -1.000000
vn 0.000000 -0.000000 -1.000000
vn 0.000000 -0.000000 -1.000000
vn 0.000000 -0.000000 -1.000000
vn 0.000000 -0.000000 -1.000000
vn 0.000000 -0.000000 -1.000000
vn 0.000000 -0.000000 -1.000000
vn 0.000000 -0.000000 -1.000000
vn 0.000000 -0.000000 -1.000000
vn 0.000000 -0.000000 -1.000000
vn 0.000000 -0.000000 -1.000000
vn 0.000000 -0.000000 -1.000000
vn 0.000000 -0.000000 -1.000000
vn 0.000000 -0.000000 -1.000000
vn 0.000000 -0.000000 -1.000000
vn 0.000000 -0.000000 -1.000000
vn 0.000000 -0.000000 -1.000000
vn 0.000000 -0.000000 -1.000000
vn 0.000000 -0.000000 -1.000000
vn 0.000000 -0.000000 -1.000000
vn 0.000000 -0.000000 -1.000000
vn 0.000000 -0.000000 -1.000000
vn 0.000000 -0.000000 -1.000000
vn 0.000000 -0.000000 -1.000000
vn 0.000000 -0.000000 -1.000000
vn 0.000000 -0.000000 -1.000000
vn 0.000000 -0.000000 -1.000000
vn 0.000000 -0.000000 -1.000000
vn 0.000000 -0.000000 -1.000000
vn 0.000000 -0.000000 -1.000000
vn 0.000000 -0.000000 -1.000000
vn 0.000000 -0.000000 -1.000000
vn 0.000000 -0.000000 -1.000000
vn 0.000000 -0.000000 -1.000000
vn 0.000000 -0.000000 -1.000000
vn 0.000000 -0.000000 -1.000000
vn 0.000000 -0.000000 -1.000000
vn 0.000000 -0.000000 -1.000000
vn 0.000000 -0.000000 -1.000000
usemtl Capa 1 Material de inflación frontal
f 3/3/3 4/4/4 12/12/12
f 6/6/6 4/4/4 5/5/5
f 8/8/8 6/6/6 7/7/7
f 9/9/9 8/8/8 10/10/10
f 11/11/11 9/9/9 10/10/10
f 12/12/12 13/13/13 3/3/3
f 14/14/14 15/15/15 1/1/1
f 53/53/53 16/16/16 15/15/15
f 19/19/19 17/17/17 18/18/18
f 21/21/21 19/19/19 20/20/20
f 23/23/23 21/21/21 22/22/22
f 25/25/25 23/23/23 24/24/24
f 27/27/27 25/25/25 26/26/26
f 28/28/28 27/27/27 29/29/29
f 30/30/30 28/28/28 29/29/29
f 36/36/36 34/34/34 20/20/20
f 33/33/33 31/31/31 32/32/32
f 34/34/34 35/35/35 32/32/32
f 36/36/36 37/37/37 34/34/34
f 38/38/38 39/39/39 54/54/54
f 41/41/41 39/39/39 40/40/40
f 43/43/43 41/41/41 42/42/42
f 45/45/45 43/43/43 44/44/44
f 46/46/46 47/47/47 44/44/44
f 49/49/49 48/48/48 51/51/51
f 50/50/50 48/48/48 49/49/49
f 51/51/51 52/52/52 49/49/49
f 46/46/46 44/44/44 2/2/2
f 4/4/4 2/2/2 12/12/12
f 1/1/1 12/12/12 2/2/2
f 3/3/3 5/5/5 4/4/4
f 5/5/5 7/7/7 6/6/6
f 7/7/7 10/10/10 8/8/8
f 3/3/3 13/13/13 5/5/5
f 5/5/5 13/13/13 7/7/7
f 7/7/7 13/13/13 10/10/10
f 11/11/11 10/10/10 13/13/13
f 15/15/15 13/13/13 1/1/1
f 12/12/12 1/1/1 13/13/13
f 15/15/15 14/14/14 53/53/53
f 17/17/17 15/15/15 16/16/16
f 54/54/54 53/53/53 14/14/14
f 16/16/16 18/18/18 17/17/17
f 18/18/18 20/20/20 19/19/19
f 20/20/20 22/22/22 21/21/21
f 22/22/22 24/24/24 23/23/23
f 24/24/24 26/26/26 25/25/25
f 26/26/26 29/29/29 27/27/27
f 20/20/20 18/18/18 36/36/36
f 20/20/20 34/34/34 22/22/22
f 18/18/18 16/16/16 36/36/36
f 53/53/53 36/36/36 16/16/16
f 22/22/22 34/34/34 24/24/24
f 34/34/34 32/32/32 24/24/24
f 24/24/24 32/32/32 26/26/26
f 26/26/26 32/32/32 29/29/29
f 32/32/32 31/31/31 29/29/29
f 30/30/30 29/29/29 31/31/31
f 33/33/33 32/32/32 35/35/35
f 35/35/35 34/34/34 37/37/37
f 54/54/54 39/39/39 53/53/53
f 53/53/53 39/39/39 36/36/36
f 37/37/37 36/36/36 39/39/39
f 38/38/38 40/40/40 39/39/39
f 40/40/40 42/42/42 41/41/41
f 42/42/42 44/44/44 43/43/43
f 45/45/45 44/44/44 47/47/47
f 48/48/48 47/47/47 51/51/51
f 46/46/46 51/51/51 47/47/47
f 50/50/50 49/49/49 52/52/52
f 2/2/2 52/52/52 46/46/46
f 44/44/44 42/42/42 2/2/2
f 51/51/51 46/46/46 52/52/52
f 2/2/2 42/42/42 1/1/1
f 42/42/42 40/40/40 1/1/1
f 1/1/1 40/40/40 14/14/14
f 40/40/40 38/38/38 14/14/14
f 54/54/54 14/14/14 38/38/38
usemtl Capa 1 Material de bisel frontal
f 1/1/1 1/1/1 1/1/1
usemtl Capa 1 Material de extrusión
f 63/63/63 55/55/55 56/56/56
f 63/63/63 56/56/56 64/64/64
f 64/64/64 56/56/56 57/57/57
f 64/64/64 57/57/57 65/65/65
f 65/65/65 57/57/57 58/58/58
f 65/65/65 58/58/58 66/66/66
f 66/66/66 58/58/58 59/59/59
f 66/66/66 59/59/59 67/67/67
f 67/67/67 59/59/59 60/60/60
f 67/67/67 60/60/60 68/68/68
f 68/68/68 60/60/60 61/61/61
f 68/68/68 61/61/61 69/69/69
f 69/69/69 61/61/61 62/62/62
f 69/69/69 62/62/62 70/70/70
f 73/73/73 71/71/71 72/72/72
f 73/73/73 72/72/72 74/74/74
f 85/85/85 75/75/75 76/76/76
f 85/85/85 76/76/76 86/86/86
f 86/86/86 76/76/76 77/77/77
f 86/86/86 77/77/77 87/87/87
f 87/87/87 77/77/77 78/78/78
f 87/87/87 78/78/78 88/88/88
f 88/88/88 78/78/78 79/79/79
f 88/88/88 79/79/79 89/89/89
f 89/89/89 79/79/79 80/80/80
f 89/89/89 80/80/80 90/90/90
f 90/90/90 80/80/80 81/81/81
f 90/90/90 81/81/81 91/91/91
f 91/91/91 81/81/81 82/82/82
f 91/91/91 82/82/82 92/92/92
f 92/92/92 82/82/82 83/83/83
f 92/92/92 83/83/83 93/93/93
f 93/93/93 83/83/83 84/84/84
f 93/93/93 84/84/84 94/94/94
f 105/105/105 95/95/95 96/96/96
f 105/105/105 96/96/96 106/106/106
f 106/106/106 96/96/96 97/97/97
f 106/106/106 97/97/97 107/107/107
f 107/107/107 97/97/97 98/98/98
f 107/107/107 98/98/98 108/108/108
f 108/108/108 98/98/98 99/99/99
f 108/108/108 99/99/99 109/109/109
f 109/109/109 99/99/99 100/100/100
f 109/109/109 100/100/100 110/110/110
f 110/110/110 100/100/100 101/101/101
f 110/110/110 101/101/101 111/111/111
f 111/111/111 101/101/101 102/102/102
f 111/111/111 102/102/102 112/112/112
f 112/112/112 102/102/102 103/103/103
f 112/112/112 103/103/103 113/113/113
f 113/113/113 103/103/103 104/104/104
f 113/113/113 104/104/104 114/114/114
f 117/117/117 115/115/115 116/116/116
f 117/117/117 116/116/116 118/118/118
f 121/121/121 119/119/119 120/120/120
f 121/121/121 120/120/120 122/122/122
usemtl Capa 1 Material de bisel posterior
f 1/1/1 1/1/1 1/1/1
usemtl Capa 1 Material de inflación posterior
f 126/126/126 125/125/125 134/134/134
f 126/126/126 128/128/128 127/127/127
f 128/128/128 130/130/130 129/129/129
f 130/130/130 131/131/131 132/132/132
f 131/131/131 133/133/133 132/132/132
f 135/135/135 134/134/134 125/125/125
f 137/137/137 136/136/136 123/123/123
f 138/138/138 175/175/175 137/137/137
f 139/139/139 141/141/141 140/140/140
f 141/141/141 143/143/143 142/142/142
f 143/143/143 145/145/145 144/144/144
f 145/145/145 147/147/147 146/146/146
f 147/147/147 149/149/149 148/148/148
f 149/149/149 150/150/150 151/151/151
f 150/150/150 152/152/152 151/151/151
f 156/156/156 158/158/158 142/142/142
f 153/153/153 155/155/155 154/154/154
f 157/157/157 156/156/156 154/154/154
f 159/159/159 158/158/158 156/156/156
f 161/161/161 160/160/160 176/176/176
f 161/161/161 163/163/163 162/162/162
f 163/163/163 165/165/165 164/164/164
f 165/165/165 167/167/167 166/166/166
f 169/169/169 168/168/168 166/166/166
f 170/170/170 171/171/171 173/173/173
f 170/170/170 172/172/172 171/171/171
f 174/174/174 173/173/173 171/171/171
f 166/166/166 168/168/168 124/124/124
f 124/124/124 126/126/126 134/134/134
f 134/134/134 123/123/123 124/124/124
f 127/127/127 125/125/125 126/126/126
f 129/129/129 127/127/127 128/128/128
f 132/132/132 129/129/129 130/130/130
f 135/135/135 125/125/125 127/127/127
f 135/135/135 127/127/127 129/129/129
f 135/135/135 129/129/129 132/132/132
f 132/132/132 133/133/133 135/135/135
f 135/135/135 137/137/137 123/123/123
f 123/123/123 134/134/134 135/135/135
f 136/136/136 137/137/137 175/175/175
f 137/137/137 139/139/139 138/138/138
f 175/175/175 176/176/176 136/136/136
f 140/140/140 138/138/138 139/139/139
f 142/142/142 140/140/140 141/141/141
f 144/144/144 142/142/142 143/143/143
f 146/146/146 144/144/144 145/145/145
f 148/148/148 146/146/146 147/147/147
f 151/151/151 148/148/148 149/149/149
f 140/140/140 142/142/142 158/158/158
f 156/156/156 142/142/142 144/144/144
f 138/138/138 140/140/140 158/158/158
f 158/158/158 175/175/175 138/138/138
f 156/156/156 144/144/144 146/146/146
f 154/154/154 156/156/156 146/146/146
f 154/154/154 146/146/146 148/148/148
f 154/154/154 148/148/148 151/151/151
f 153/153/153 154/154/154 151/151/151
f 151/151/151 152/152/152 153/153/153
f 154/154/154 155/155/155 157/157/157
f 156/156/156 157/157/157 159/159/159
f 161/161/161 176/176/176 175/175/175
f 161/161/161 175/175/175 158/158/158
f 158/158/158 159/159/159 161/161/161
f 162/162/162 160/160/160 161/161/161
f 164/164/164 162/162/162 163/163/163
f 166/166/166 164/164/164 165/165/165
f 166/166/166 167/167/167 169/169/169
f 169/169/169 170/170/170 173/173/173
f 173/173/173 168/168/168 169/169/169
f 171/171/171 172/172/172 174/174/174
f 174/174/174 124/124/124 168/168/168
f 164/164/164 166/166/166 124/124/124
f 168/168/168 173/173/173 174/174/174
f 164/164/164 124/124/124 123/123/123
f 162/162/162 164/164/164 123/123/123
f 162/162/162 123/123/123 136/136/136
f 160/160/160 162/162/162 136/136/136
f 136/136/136 176/176/176 160/160/160
