mtllib Sin título-9 copia.mtl
v 5.807992 3.251198 0.000000
v 5.003100 3.997902 0.000000
v 214.273300 104.161346 0.000000
v 209.000702 125.997398 0.000000
v 254.992493 122.997704 0.000000
v 250.291809 121.226822 0.000000
v 251.998199 120.001602 0.000000
v 244.672195 117.989349 0.000000
v 249.619492 115.204597 0.000000
v 234.900742 113.021904 0.000000
v 244.051193 106.421501 0.000000
v 220.110901 106.585793 0.000000
v 234.356400 94.548706 0.000000
v 202.185440 94.068497 0.000000
v 220.863602 79.114601 0.000000
v 192.332123 85.090134 0.000000
v 214.703094 70.697800 0.000000
v 182.173630 74.649078 0.000000
v 209.426392 61.298203 0.000000
v 178.694565 66.800095 0.000000
v 207.234894 56.107903 0.000000
v 187.427155 55.600700 0.000000
v 205.401596 50.527000 0.000000
v 203.974197 44.507805 0.000000
v 195.457825 46.153786 0.000000
v 202.997696 38.002602 0.000000
v 177.355804 68.670609 0.000000
v 180.876602 36.426704 0.000000
v 147.246506 58.223732 0.000000
v 151.956894 32.162498 0.000000
v 17.639160 7.190895 0.000000
v 18.227699 3.486702 0.000000
v 4.005000 2.003502 0.000000
v 177.176819 68.901779 0.000000
v 5.003100 3.997902 0.000000
v 209.000702 125.997398 0.000000
v 5.003100 3.997902 -123.993896
v 209.000702 125.997398 -123.993896
v 209.000702 125.997398 0.000000
v 254.992493 122.997704 0.000000
v 209.000702 125.997398 -123.993896
v 254.992493 122.997704 -123.993896
v 254.992493 122.997704 0.000000
v 251.998199 120.001602 0.000000
v 249.619492 115.204597 0.000000
v 244.051193 106.421501 0.000000
v 234.356400 94.548706 0.000000
v 220.863602 79.114601 0.000000
v 214.703094 70.697800 0.000000
v 209.426392 61.298203 0.000000
v 207.234894 56.107903 0.000000
v 205.401596 50.527000 0.000000
v 203.974197 44.507805 0.000000
v 202.997696 38.002602 0.000000
v 254.992493 122.997704 -123.993896
v 251.998199 120.001602 -123.993896
v 249.619492 115.204597 -123.993896
v 244.051193 106.421501 -123.993896
v 234.356400 94.548706 -123.993896
v 220.863602 79.114601 -123.993896
v 214.703094 70.697800 -123.993896
v 209.426392 61.298203 -123.993896
v 207.234894 56.107903 -123.993896
v 205.401596 50.527000 -123.993896
v 203.974197 44.507805 -123.993896
v 202.997696 38.002602 -123.993896
v 202.997696 38.002602 0.000000
v 180.876602 36.426704 0.000000
v 151.956894 32.162498 0.000000
v 18.227699 3.486702 0.000000
v 4.005000 2.003502 0.000000
v 202.997696 38.002602 -123.993896
v 180.876602 36.426704 -123.993896
v 151.956894 32.162498 -123.993896
v 18.227699 3.486702 -123.993896
v 4.005000 2.003502 -123.993896
v 4.005000 2.003502 0.000000
v 5.003100 3.997902 0.000000
v 4.005000 2.003502 -123.993896
v 5.003100 3.997902 -123.993896
v 5.807992 3.251198 -123.993896
v 5.003100 3.997902 -123.993896
v 214.273300 104.161346 -123.993896
v 209.000702 125.997398 -123.993896
v 254.992493 122.997704 -123.993896
v 250.291809 121.226822 -123.993896
v 251.998199 120.001602 -123.993896
v 244.672195 117.989349 -123.993896
v 249.619492 115.204597 -123.993896
v 234.900742 113.021904 -123.993896
v 244.051193 106.421501 -123.993896
v 220.110901 106.585793 -123.993896
v 234.356400 94.548706 -123.993896
v 202.185440 94.068497 -123.993896
v 220.863602 79.114601 -123.993896
v 192.332123 85.090134 -123.993896
v 214.703094 70.697800 -123.993896
v 182.173630 74.649078 -123.993896
v 209.426392 61.298203 -123.993896
v 178.694565 66.800095 -123.993896
v 207.234894 56.107903 -123.993896
v 187.427155 55.600700 -123.993896
v 205.401596 50.527000 -123.993896
v 203.974197 44.507805 -123.993896
v 195.457825 46.153786 -123.993896
v 202.997696 38.002602 -123.993896
v 177.355804 68.670609 -123.993896
v 180.876602 36.426704 -123.993896
v 147.246506 58.223732 -123.993896
v 151.956894 32.162498 -123.993896
v 17.639160 7.190895 -123.993896
v 18.227699 3.486702 -123.993896
v 4.005000 2.003502 -123.993896
v 177.176819 68.901779 -123.993896
vt 0.007184 0.010063
vt 0.003977 0.016085
vt 0.837764 0.823894
vt 0.816757 1.000000
vt 1.000000 0.975808
vt 0.981271 0.961526
vt 0.988070 0.951644
vt 0.958881 0.935416
vt 0.978593 0.912957
vt 0.919949 0.895354
vt 0.956407 0.842122
vt 0.861023 0.843447
vt 0.917780 0.746369
vt 0.789603 0.742496
vt 0.864022 0.621894
vt 0.750345 0.670086
vt 0.839476 0.554013
vt 0.709871 0.585880
vt 0.818453 0.478207
vt 0.696009 0.522579
vt 0.809721 0.436347
vt 0.730802 0.432257
vt 0.802417 0.391338
vt 0.796730 0.342793
vt 0.762798 0.356068
vt 0.792839 0.290330
vt 0.690675 0.537664
vt 0.704703 0.277620
vt 0.570712 0.453411
vt 0.589479 0.243230
vt 0.054322 0.041836
vt 0.056667 0.011962
vt 0.000000 0.000000
vt 0.689962 0.539529
vt 1.000000 1.000000
vt 0.596986 1.000000
vt 1.000000 0.500000
vt 0.596986 0.500000
vt 0.596986 1.000000
vt 0.518841 1.000000
vt 0.596986 0.500000
vt 0.518841 0.500000
vt 0.518841 1.000000
vt 0.511659 1.000000
vt 0.502581 1.000000
vt 0.484949 1.000000
vt 0.458960 1.000000
vt 0.424201 1.000000
vt 0.406516 1.000000
vt 0.388240 1.000000
vt 0.378687 1.000000
vt 0.368727 1.000000
vt 0.358238 1.000000
vt 0.347085 1.000000
vt 0.518841 0.500000
vt 0.511659 0.500000
vt 0.502581 0.500000
vt 0.484949 0.500000
vt 0.458960 0.500000
vt 0.424201 0.500000
vt 0.406516 0.500000
vt 0.388240 0.500000
vt 0.378687 0.500000
vt 0.368727 0.500000
vt 0.358238 0.500000
vt 0.347085 0.500000
vt 0.347085 1.000000
vt 0.309484 1.000000
vt 0.259920 1.000000
vt 0.028027 1.000000
vt 0.003781 1.000000
vt 0.347085 0.500000
vt 0.309484 0.500000
vt 0.259920 0.500000
vt 0.028027 0.500000
vt 0.003781 0.500000
vt 0.003781 1.000000
vt 0.000000 1.000000
vt 0.003781 0.500000
vt 0.000000 0.500000
vt 0.007184 0.010063
vt 0.003977 0.016085
vt 0.837764 0.823894
vt 0.816757 1.000000
vt 1.000000 0.975808
vt 0.981271 0.961526
vt 0.988070 0.951644
vt 0.958881 0.935416
vt 0.978593 0.912957
vt 0.919949 0.895354
vt 0.956407 0.842122
vt 0.861023 0.843447
vt 0.917780 0.746369
vt 0.789603 0.742496
vt 0.864022 0.621894
vt 0.750345 0.670086
vt 0.839476 0.554013
vt 0.709871 0.585880
vt 0.818453 0.478207
vt 0.696009 0.522579
vt 0.809721 0.436347
vt 0.730802 0.432257
vt 0.802417 0.391338
vt 0.796730 0.342793
vt 0.762798 0.356068
vt 0.792839 0.290330
vt 0.690675 0.537664
vt 0.704703 0.277620
vt 0.570712 0.453411
vt 0.589479 0.243230
vt 0.054322 0.041836
vt 0.056667 0.011962
vt 0.000000 0.000000
vt 0.689962 0.539529
vn 0.000000 -0.000000 1.000000
vn 0.000000 -0.000000 1.000000
vn 0.000000 -0.000000 1.000000
vn 0.000000 -0.000000 1.000000
vn 0.000000 -0.000000 1.000000
vn 0.000000 -0.000000 1.000000
vn 0.000000 -0.000000 1.000000
vn 0.000000 -0.000000 1.000000
vn 0.000000 -0.000000 1.000000
vn 0.000000 -0.000000 1.000000
vn 0.000000 -0.000000 1.000000
vn 0.000000 -0.000000 1.000000
vn 0.000000 -0.000000 1.000000
vn 0.000000 -0.000000 1.000000
vn 0.000000 -0.000000 1.000000
vn 0.000000 -0.000000 1.000000
vn 0.000000 -0.000000 1.000000
vn 0.000000 -0.000000 1.000000
vn 0.000000 -0.000000 1.000000
vn 0.000000 -0.000000 1.000000
vn 0.000000 -0.000000 1.000000
vn 0.000000 -0.000000 1.000000
vn 0.000000 -0.000000 1.000000
vn 0.000000 -0.000000 1.000000
vn 0.000000 -0.000000 1.000000
vn 0.000000 -0.000000 1.000000
vn 0.000000 -0.000000 1.000000
vn 0.000000 -0.000000 1.000000
vn 0.000000 -0.000000 1.000000
vn 0.000000 -0.000000 1.000000
vn 0.000000 -0.000000 1.000000
vn 0.000000 -0.000000 1.000000
vn 0.000000 -0.000000 1.000000
vn 0.000000 -0.000000 1.000000
vn -0.513261 0.858233 -0.000000
vn -0.513261 0.858233 -0.000000
vn -0.513261 0.858233 -0.000000
vn -0.513261 0.858233 -0.000000
vn 0.065084 0.997880 0.000000
vn 0.065084 0.997880 0.000000
vn 0.065084 0.997880 0.000000
vn 0.065084 0.997880 0.000000
vn 0.707320 -0.706894 0.000000
vn 0.812296 -0.583246 0.000000
vn 0.871430 -0.490519 0.000000
vn 0.811026 -0.585010 0.000000
vn 0.763829 -0.645419 0.000000
vn 0.780637 -0.624985 0.000000
vn 0.840990 -0.541050 0.000000
vn 0.898029 -0.439937 0.000000
vn 0.936440 -0.350828 0.000000
vn 0.962394 -0.271657 0.000000
vn 0.981830 -0.189761 0.000000
vn 0.988920 -0.148448 0.000000
vn 0.707320 -0.706894 0.000000
vn 0.812296 -0.583246 0.000000
vn 0.871430 -0.490519 0.000000
vn 0.811026 -0.585010 0.000000
vn 0.763829 -0.645419 0.000000
vn 0.780637 -0.624985 0.000000
vn 0.840990 -0.541050 0.000000
vn 0.898029 -0.439937 0.000000
vn 0.936440 -0.350828 0.000000
vn 0.962394 -0.271657 0.000000
vn 0.981830 -0.189761 0.000000
vn 0.988920 -0.148448 0.000000
vn 0.071059 -0.997472 0.000000
vn 0.108543 -0.994092 0.000000
vn 0.177863 -0.984055 0.000000
vn 0.156919 -0.987611 0.000000
vn 0.103722 -0.994606 0.000000
vn 0.071059 -0.997472 0.000000
vn 0.108543 -0.994092 0.000000
vn 0.177863 -0.984055 0.000000
vn 0.156919 -0.987611 0.000000
vn 0.103722 -0.994606 0.000000
vn -0.894266 0.447536 -0.000000
vn -0.894266 0.447536 -0.000000
vn -0.894266 0.447536 -0.000000
vn -0.894266 0.447536 -0.000000
vn 0.000000 -0.000000 -1.000000
vn 0.000000 -0.000000 -1.000000
vn 0.000000 -0.000000 -1.000000
vn 0.000000 -0.000000 -1.000000
vn 0.000000 -0.000000 -1.000000
vn 0.000000 -0.000000 -1.000000
vn 0.000000 -0.000000 -1.000000
vn 0.000000 -0.000000 -1.000000
vn 0.000000 -0.000000 -1.000000
vn 0.000000 -0.000000 -1.000000
vn 0.000000 -0.000000 -1.000000
vn 0.000000 -0.000000 -1.000000
vn 0.000000 -0.000000 -1.000000
vn 0.000000 -0.000000 -1.000000
vn 0.000000 -0.000000 -1.000000
vn 0.000000 -0.000000 -1.000000
vn 0.000000 -0.000000 -1.000000
vn 0.000000 -0.000000 -1.000000
vn 0.000000 -0.000000 -1.000000
vn 0.000000 -0.000000 -1.000000
vn 0.000000 -0.000000 -1.000000
vn 0.000000 -0.000000 -1.000000
vn 0.000000 -0.000000 -1.000000
vn 0.000000 -0.000000 -1.000000
vn 0.000000 -0.000000 -1.000000
vn 0.000000 -0.000000 -1.000000
vn 0.000000 -0.000000 -1.000000
vn 0.000000 -0.000000 -1.000000
vn 0.000000 -0.000000 -1.000000
vn 0.000000 -0.000000 -1.000000
vn 0.000000 -0.000000 -1.000000
vn 0.000000 -0.000000 -1.000000
vn 0.000000 -0.000000 -1.000000
vn 0.000000 -0.000000 -1.000000
usemtl Capa 1 Material de inflación frontal
f 18/18/18 16/16/16 4/4/4
f 5/5/5 4/4/4 6/6/6
f 6/6/6 7/7/7 5/5/5
f 8/8/8 9/9/9 6/6/6
f 10/10/10 11/11/11 8/8/8
f 12/12/12 13/13/13 10/10/10
f 14/14/14 15/15/15 3/3/3
f 16/16/16 17/17/17 14/14/14
f 18/18/18 19/19/19 16/16/16
f 34/34/34 27/27/27 18/18/18
f 23/23/23 21/21/21 22/22/22
f 24/24/24 23/23/23 25/25/25
f 26/26/26 24/24/24 25/25/25
f 27/27/27 28/28/28 20/20/20
f 30/30/30 28/28/28 29/29/29
f 32/32/32 30/30/30 31/31/31
f 33/33/33 32/32/32 1/1/1
f 2/2/2 33/33/33 1/1/1
f 18/18/18 4/4/4 29/29/29
f 16/16/16 14/14/14 4/4/4
f 34/34/34 18/18/18 29/29/29
f 29/29/29 4/4/4 31/31/31
f 31/31/31 4/4/4 1/1/1
f 2/2/2 1/1/1 4/4/4
f 3/3/3 4/4/4 14/14/14
f 6/6/6 4/4/4 8/8/8
f 8/8/8 4/4/4 10/10/10
f 10/10/10 4/4/4 12/12/12
f 3/3/3 12/12/12 4/4/4
f 7/7/7 6/6/6 9/9/9
f 9/9/9 8/8/8 11/11/11
f 11/11/11 10/10/10 13/13/13
f 3/3/3 15/15/15 12/12/12
f 13/13/13 12/12/12 15/15/15
f 15/15/15 14/14/14 17/17/17
f 17/17/17 16/16/16 19/19/19
f 27/27/27 20/20/20 18/18/18
f 18/18/18 20/20/20 19/19/19
f 21/21/21 19/19/19 20/20/20
f 20/20/20 22/22/22 21/21/21
f 22/22/22 25/25/25 23/23/23
f 20/20/20 28/28/28 22/22/22
f 22/22/22 28/28/28 25/25/25
f 26/26/26 25/25/25 28/28/28
f 28/28/28 27/27/27 29/29/29
f 34/34/34 29/29/29 27/27/27
f 29/29/29 31/31/31 30/30/30
f 31/31/31 1/1/1 32/32/32
usemtl Capa 1 Material de bisel frontal
f 1/1/1 1/1/1 1/1/1
usemtl Capa 1 Material de extrusión
f 37/37/37 35/35/35 36/36/36
f 37/37/37 36/36/36 38/38/38
f 41/41/41 39/39/39 40/40/40
f 41/41/41 40/40/40 42/42/42
f 55/55/55 43/43/43 44/44/44
f 55/55/55 44/44/44 56/56/56
f 56/56/56 44/44/44 45/45/45
f 56/56/56 45/45/45 57/57/57
f 57/57/57 45/45/45 46/46/46
f 57/57/57 46/46/46 58/58/58
f 58/58/58 46/46/46 47/47/47
f 58/58/58 47/47/47 59/59/59
f 59/59/59 47/47/47 48/48/48
f 59/59/59 48/48/48 60/60/60
f 60/60/60 48/48/48 49/49/49
f 60/60/60 49/49/49 61/61/61
f 61/61/61 49/49/49 50/50/50
f 61/61/61 50/50/50 62/62/62
f 62/62/62 50/50/50 51/51/51
f 62/62/62 51/51/51 63/63/63
f 63/63/63 51/51/51 52/52/52
f 63/63/63 52/52/52 64/64/64
f 64/64/64 52/52/52 53/53/53
f 64/64/64 53/53/53 65/65/65
f 65/65/65 53/53/53 54/54/54
f 65/65/65 54/54/54 66/66/66
f 72/72/72 67/67/67 68/68/68
f 72/72/72 68/68/68 73/73/73
f 73/73/73 68/68/68 69/69/69
f 73/73/73 69/69/69 74/74/74
f 74/74/74 69/69/69 70/70/70
f 74/74/74 70/70/70 75/75/75
f 75/75/75 70/70/70 71/71/71
f 75/75/75 71/71/71 76/76/76
f 79/79/79 77/77/77 78/78/78
f 79/79/79 78/78/78 80/80/80
usemtl Capa 1 Material de bisel posterior
f 1/1/1 1/1/1 1/1/1
usemtl Capa 1 Material de inflación posterior
f 96/96/96 98/98/98 84/84/84
f 84/84/84 85/85/85 86/86/86
f 87/87/87 86/86/86 85/85/85
f 89/89/89 88/88/88 86/86/86
f 91/91/91 90/90/90 88/88/88
f 93/93/93 92/92/92 90/90/90
f 95/95/95 94/94/94 83/83/83
f 97/97/97 96/96/96 94/94/94
f 99/99/99 98/98/98 96/96/96
f 107/107/107 114/114/114 98/98/98
f 101/101/101 103/103/103 102/102/102
f 103/103/103 104/104/104 105/105/105
f 104/104/104 106/106/106 105/105/105
f 108/108/108 107/107/107 100/100/100
f 108/108/108 110/110/110 109/109/109
f 110/110/110 112/112/112 111/111/111
f 112/112/112 113/113/113 81/81/81
f 113/113/113 82/82/82 81/81/81
f 84/84/84 98/98/98 109/109/109
f 94/94/94 96/96/96 84/84/84
f 98/98/98 114/114/114 109/109/109
f 84/84/84 109/109/109 111/111/111
f 84/84/84 111/111/111 81/81/81
f 81/81/81 82/82/82 84/84/84
f 84/84/84 83/83/83 94/94/94
f 84/84/84 86/86/86 88/88/88
f 84/84/84 88/88/88 90/90/90
f 84/84/84 90/90/90 92/92/92
f 92/92/92 83/83/83 84/84/84
f 86/86/86 87/87/87 89/89/89
f 88/88/88 89/89/89 91/91/91
f 90/90/90 91/91/91 93/93/93
f 95/95/95 83/83/83 92/92/92
f 92/92/92 93/93/93 95/95/95
f 94/94/94 95/95/95 97/97/97
f 96/96/96 97/97/97 99/99/99
f 100/100/100 107/107/107 98/98/98
f 100/100/100 98/98/98 99/99/99
f 99/99/99 101/101/101 100/100/100
f 102/102/102 100/100/100 101/101/101
f 105/105/105 102/102/102 103/103/103
f 108/108/108 100/100/100 102/102/102
f 108/108/108 102/102/102 105/105/105
f 105/105/105 106/106/106 108/108/108
f 107/107/107 108/108/108 109/109/109
f 109/109/109 114/114/114 107/107/107
f 111/111/111 109/109/109 110/110/110
f 81/81/81 111/111/111 112/112/112
