mtllib Sin título-2 copia.mtl
v 2.009700 162.998199 0.000000
v 72.174469 149.248657 0.000000
v 71.000099 170.997406 0.000000
v 123.343567 135.910492 0.000000
v 125.312401 170.587906 0.000000
v 133.630447 132.681122 0.000000
v 138.977097 169.135300 0.000000
v 138.909348 130.790497 0.000000
v 147.463196 167.544098 0.000000
v 144.435989 131.642624 0.000000
v 155.330994 165.349899 0.000000
v 158.999390 163.997192 0.000000
v 149.251816 141.115891 0.000000
v 161.617493 162.725494 0.000000
v 144.974869 127.972633 0.000000
v 167.052597 159.107498 0.000000
v 157.497482 119.868546 0.000000
v 178.609497 150.389206 0.000000
v 163.195038 116.505470 0.000000
v 181.617294 148.486603 0.000000
v 169.461838 113.148094 0.000000
v 184.664703 146.895401 0.000000
v 177.054550 109.630112 0.000000
v 187.747192 145.716400 0.000000
v 186.410309 106.144577 0.000000
v 190.859390 145.050400 0.000000
v 194.862350 103.899078 0.000000
v 194.000397 144.997299 0.000000
v 390.765930 86.848183 0.000000
v 389.312103 156.502899 0.000000
v 491.681396 93.549065 0.000000
v 495.070190 154.701096 0.000000
v 559.701782 95.454094 0.000000
v 564.861572 148.146393 0.000000
v 683.993713 135.997299 0.000000
v 595.843628 103.304428 0.000000
v 628.997375 78.002205 0.000000
v 585.745239 98.274673 0.000000
v 627.426880 75.411102 0.000000
v 585.981750 89.978531 0.000000
v 626.141663 72.807404 0.000000
v 624.224670 67.548698 0.000000
v 597.590576 75.783043 0.000000
v 619.997375 51.003098 0.000000
v 308.593689 78.251038 0.000000
v 295.001099 2.003510 0.000000
v 143.238312 129.025146 0.000000
v 581.597168 95.979836 0.000000
v 2.009700 162.998199 0.000000
v 71.000099 170.997406 0.000000
v 125.312401 170.587906 0.000000
v 138.977097 169.135300 0.000000
v 147.463196 167.544098 0.000000
v 155.330994 165.349899 0.000000
v 158.999390 163.997192 0.000000
v 161.617493 162.725494 0.000000
v 167.052597 159.107498 0.000000
v 178.609497 150.389206 0.000000
v 181.617294 148.486603 0.000000
v 184.664703 146.895401 0.000000
v 187.747192 145.716400 0.000000
v 190.859390 145.050400 0.000000
v 194.000397 144.997299 0.000000
v 389.312103 156.502899 0.000000
v 495.070190 154.701096 0.000000
v 564.861572 148.146393 0.000000
v 683.993713 135.997299 0.000000
v 2.009700 162.998199 -169.274689
v 71.000099 170.997406 -169.274689
v 125.312401 170.587906 -169.274689
v 138.977097 169.135300 -169.274689
v 147.463196 167.544098 -169.274689
v 155.330994 165.349899 -169.274689
v 158.999390 163.997192 -169.274689
v 161.617493 162.725494 -169.274689
v 167.052597 159.107498 -169.274689
v 178.609497 150.389206 -169.274689
v 181.617294 148.486603 -169.274689
v 184.664703 146.895401 -169.274689
v 187.747192 145.716400 -169.274689
v 190.859390 145.050400 -169.274689
v 194.000397 144.997299 -169.274689
v 389.312103 156.502899 -169.274689
v 495.070190 154.701096 -169.274689
v 564.861572 148.146393 -169.274689
v 683.993713 135.997299 -169.274689
v 683.993713 135.997299 0.000000
v 628.997375 78.002205 0.000000
v 627.426880 75.411102 0.000000
v 626.141663 72.807404 0.000000
v 624.224670 67.548698 0.000000
v 619.997375 51.003098 0.000000
v 683.993713 135.997299 -169.274689
v 628.997375 78.002205 -169.274689
v 627.426880 75.411102 -169.274689
v 626.141663 72.807404 -169.274689
v 624.224670 67.548698 -169.274689
v 619.997375 51.003098 -169.274689
v 619.997375 51.003098 0.000000
v 295.001099 2.003510 0.000000
v 619.997375 51.003098 -169.274689
v 295.001099 2.003510 -169.274689
v 295.001099 2.003510 0.000000
v 2.009700 162.998199 0.000000
v 295.001099 2.003510 -169.274689
v 2.009700 162.998199 -169.274689
v 2.009700 162.998199 -169.274689
v 72.174469 149.248657 -169.274689
v 71.000099 170.997406 -169.274689
v 123.343567 135.910492 -169.274689
v 125.312401 170.587906 -169.274689
v 133.630447 132.681122 -169.274689
v 138.977097 169.135300 -169.274689
v 138.909348 130.790497 -169.274689
v 147.463196 167.544098 -169.274689
v 144.435989 131.642624 -169.274689
v 155.330994 165.349899 -169.274689
v 158.999390 163.997192 -169.274689
v 149.251816 141.115891 -169.274689
v 161.617493 162.725494 -169.274689
v 144.974869 127.972633 -169.274689
v 167.052597 159.107498 -169.274689
v 157.497482 119.868546 -169.274689
v 178.609497 150.389206 -169.274689
v 163.195038 116.505470 -169.274689
v 181.617294 148.486603 -169.274689
v 169.461838 113.148094 -169.274689
v 184.664703 146.895401 -169.274689
v 177.054550 109.630112 -169.274689
v 187.747192 145.716400 -169.274689
v 186.410309 106.144577 -169.274689
v 190.859390 145.050400 -169.274689
v 194.862350 103.899078 -169.274689
v 194.000397 144.997299 -169.274689
v 390.765930 86.848183 -169.274689
v 389.312103 156.502899 -169.274689
v 491.681396 93.549065 -169.274689
v 495.070190 154.701096 -169.274689
v 559.701782 95.454094 -169.274689
v 564.861572 148.146393 -169.274689
v 683.993713 135.997299 -169.274689
v 595.843628 103.304428 -169.274689
v 628.997375 78.002205 -169.274689
v 585.745239 98.274673 -169.274689
v 627.426880 75.411102 -169.274689
v 585.981750 89.978531 -169.274689
v 626.141663 72.807404 -169.274689
v 624.224670 67.548698 -169.274689
v 597.590576 75.783043 -169.274689
v 619.997375 51.003098 -169.274689
v 308.593689 78.251038 -169.274689
v 295.001099 2.003510 -169.274689
v 143.238312 129.025146 -169.274689
v 581.597168 95.979836 -169.274689
vt 0.000000 0.952666
vt 0.102883 0.871305
vt 0.101161 1.000000
vt 0.177913 0.792378
vt 0.180800 0.997577
vt 0.192997 0.773268
vt 0.200837 0.988981
vt 0.200737 0.762081
vt 0.213280 0.979566
vt 0.208841 0.767123
vt 0.224817 0.966582
vt 0.230196 0.958577
vt 0.215903 0.823180
vt 0.234034 0.951052
vt 0.209631 0.745406
vt 0.242004 0.929643
vt 0.227993 0.697451
vt 0.258950 0.878054
vt 0.236348 0.677551
vt 0.263360 0.866795
vt 0.245537 0.657684
vt 0.267829 0.857379
vt 0.256670 0.636867
vt 0.272349 0.850403
vt 0.270388 0.616242
vt 0.276912 0.846462
vt 0.282782 0.602954
vt 0.281518 0.846148
vt 0.570037 0.502058
vt 0.567905 0.914231
vt 0.718010 0.541709
vt 0.722980 0.903569
vt 0.817750 0.552982
vt 0.825315 0.864782
vt 1.000000 0.792891
vt 0.870745 0.599435
vt 0.919358 0.449713
vt 0.855937 0.569672
vt 0.917055 0.434380
vt 0.856284 0.520581
vt 0.915171 0.418973
vt 0.912360 0.387855
vt 0.873306 0.436581
vt 0.906161 0.289949
vt 0.449547 0.451185
vt 0.429616 0.000000
vt 0.207085 0.751634
vt 0.849855 0.556093
vt 1.000000 1.000000
vt 0.952480 1.000000
vt 0.915318 1.000000
vt 0.905916 1.000000
vt 0.900008 1.000000
vt 0.894420 1.000000
vt 0.891744 1.000000
vt 0.889753 1.000000
vt 0.885286 1.000000
vt 0.875381 1.000000
vt 0.872946 1.000000
vt 0.870593 1.000000
vt 0.868335 1.000000
vt 0.866158 1.000000
vt 0.864008 1.000000
vt 0.730143 1.000000
vt 0.657771 1.000000
vt 0.609810 1.000000
vt 0.527875 1.000000
vt 1.000000 0.500000
vt 0.952480 0.500000
vt 0.915318 0.500000
vt 0.905916 0.500000
vt 0.900008 0.500000
vt 0.894420 0.500000
vt 0.891744 0.500000
vt 0.889753 0.500000
vt 0.885286 0.500000
vt 0.875381 0.500000
vt 0.872946 0.500000
vt 0.870593 0.500000
vt 0.868335 0.500000
vt 0.866158 0.500000
vt 0.864008 0.500000
vt 0.730143 0.500000
vt 0.657771 0.500000
vt 0.609810 0.500000
vt 0.527875 0.500000
vt 0.527876 1.000000
vt 0.473190 1.000000
vt 0.471117 1.000000
vt 0.469130 1.000000
vt 0.465301 1.000000
vt 0.453616 1.000000
vt 0.527876 0.500000
vt 0.473190 0.500000
vt 0.471117 0.500000
vt 0.469130 0.500000
vt 0.465301 0.500000
vt 0.453616 0.500000
vt 0.453616 1.000000
vt 0.228738 1.000000
vt 0.453616 0.500000
vt 0.228738 0.500000
vt 0.228738 1.000000
vt 0.000000 1.000000
vt 0.228738 0.500000
vt 0.000000 0.500000
vt 0.000000 0.952666
vt 0.102883 0.871305
vt 0.101161 1.000000
vt 0.177913 0.792378
vt 0.180800 0.997577
vt 0.192997 0.773268
vt 0.200837 0.988981
vt 0.200737 0.762081
vt 0.213280 0.979566
vt 0.208841 0.767123
vt 0.224817 0.966582
vt 0.230196 0.958577
vt 0.215903 0.823180
vt 0.234034 0.951052
vt 0.209631 0.745406
vt 0.242004 0.929643
vt 0.227993 0.697451
vt 0.258950 0.878054
vt 0.236348 0.677551
vt 0.263360 0.866795
vt 0.245537 0.657684
vt 0.267829 0.857379
vt 0.256670 0.636867
vt 0.272349 0.850403
vt 0.270388 0.616242
vt 0.276912 0.846462
vt 0.282782 0.602954
vt 0.281518 0.846148
vt 0.570037 0.502058
vt 0.567905 0.914231
vt 0.718010 0.541709
vt 0.722980 0.903569
vt 0.817750 0.552982
vt 0.825315 0.864782
vt 1.000000 0.792891
vt 0.870745 0.599435
vt 0.919358 0.449713
vt 0.855937 0.569672
vt 0.917055 0.434380
vt 0.856284 0.520581
vt 0.915171 0.418973
vt 0.912360 0.387855
vt 0.873306 0.436581
vt 0.906161 0.289949
vt 0.449547 0.451185
vt 0.429616 0.000000
vt 0.207085 0.751634
vt 0.849855 0.556093
vn 0.000000 -0.000000 1.000000
vn 0.000000 -0.000000 1.000000
vn 0.000000 -0.000000 1.000000
vn 0.000000 -0.000000 1.000000
vn 0.000000 -0.000000 1.000000
vn 0.000000 -0.000000 1.000000
vn 0.000000 -0.000000 1.000000
vn 0.000000 -0.000000 1.000000
vn 0.000000 -0.000000 1.000000
vn 0.000000 -0.000000 1.000000
vn 0.000000 -0.000000 1.000000
vn 0.000000 -0.000000 1.000000
vn 0.000000 -0.000000 1.000000
vn 0.000000 -0.000000 1.000000
vn 0.000000 -0.000000 1.000000
vn 0.000000 -0.000000 1.000000
vn 0.000000 -0.000000 1.000000
vn 0.000000 -0.000000 1.000000
vn 0.000000 -0.000000 1.000000
vn 0.000000 -0.000000 1.000000
vn 0.000000 -0.000000 1.000000
vn 0.000000 -0.000000 1.000000
vn 0.000000 -0.000000 1.000000
vn 0.000000 -0.000000 1.000000
vn 0.000000 -0.000000 1.000000
vn 0.000000 -0.000000 1.000000
vn 0.000000 -0.000000 1.000000
vn 0.000000 -0.000000 1.000000
vn 0.000000 -0.000000 1.000000
vn 0.000000 -0.000000 1.000000
vn 0.000000 -0.000000 1.000000
vn 0.000000 -0.000000 1.000000
vn 0.000000 -0.000000 1.000000
vn 0.000000 -0.000000 1.000000
vn 0.000000 -0.000000 1.000000
vn 0.000000 -0.000000 1.000000
vn 0.000000 -0.000000 1.000000
vn 0.000000 -0.000000 1.000000
vn 0.000000 -0.000000 1.000000
vn 0.000000 -0.000000 1.000000
vn 0.000000 -0.000000 1.000000
vn 0.000000 -0.000000 1.000000
vn 0.000000 -0.000000 1.000000
vn 0.000000 -0.000000 1.000000
vn 0.000000 -0.000000 1.000000
vn 0.000000 -0.000000 1.000000
vn 0.000000 -0.000000 1.000000
vn 0.000000 -0.000000 1.000000
vn -0.115175 0.993345 -0.000000
vn -0.053920 0.998545 -0.000000
vn 0.056692 0.998392 0.000000
vn 0.145116 0.989415 0.000000
vn 0.226676 0.973970 0.000000
vn 0.307557 0.951530 0.000000
vn 0.391924 0.919998 0.000000
vn 0.496656 0.867948 0.000000
vn 0.578433 0.815730 0.000000
vn 0.568891 0.822413 0.000000
vn 0.499145 0.866519 0.000000
vn 0.410737 0.911754 0.000000
vn 0.284099 0.958795 0.000000
vn 0.113614 0.993525 0.000000
vn -0.020967 0.999780 -0.000000
vn -0.020901 0.999782 -0.000000
vn 0.055311 0.998469 0.000000
vn 0.097481 0.995237 0.000000
vn 0.101454 0.994840 0.000000
vn -0.115175 0.993345 -0.000000
vn -0.053920 0.998545 -0.000000
vn 0.056692 0.998392 0.000000
vn 0.145116 0.989415 0.000000
vn 0.226676 0.973970 0.000000
vn 0.307557 0.951530 0.000000
vn 0.391924 0.919998 0.000000
vn 0.496656 0.867948 0.000000
vn 0.578433 0.815730 0.000000
vn 0.568891 0.822413 0.000000
vn 0.499145 0.866519 0.000000
vn 0.410737 0.911754 0.000000
vn 0.284099 0.958795 0.000000
vn 0.113614 0.993525 0.000000
vn -0.020967 0.999780 -0.000000
vn -0.020901 0.999782 -0.000000
vn 0.055311 0.998469 0.000000
vn 0.097481 0.995237 0.000000
vn 0.101454 0.994840 0.000000
vn 0.725618 -0.688098 0.000000
vn 0.794943 -0.606684 0.000000
vn 0.876760 -0.480928 0.000000
vn 0.919478 -0.393141 0.000000
vn 0.955380 -0.295381 0.000000
vn 0.968877 -0.247542 0.000000
vn 0.725618 -0.688098 0.000000
vn 0.794943 -0.606684 0.000000
vn 0.876760 -0.480928 0.000000
vn 0.919478 -0.393141 0.000000
vn 0.955380 -0.295381 0.000000
vn 0.968877 -0.247542 0.000000
vn 0.149085 -0.988824 0.000000
vn 0.149085 -0.988824 0.000000
vn 0.149085 -0.988824 0.000000
vn 0.149085 -0.988824 0.000000
vn -0.481573 -0.876406 0.000000
vn -0.481573 -0.876406 0.000000
vn -0.481573 -0.876406 0.000000
vn -0.481573 -0.876406 0.000000
vn 0.000000 -0.000000 -1.000000
vn 0.000000 -0.000000 -1.000000
vn 0.000000 -0.000000 -1.000000
vn 0.000000 -0.000000 -1.000000
vn 0.000000 -0.000000 -1.000000
vn 0.000000 -0.000000 -1.000000
vn 0.000000 -0.000000 -1.000000
vn 0.000000 -0.000000 -1.000000
vn 0.000000 -0.000000 -1.000000
vn 0.000000 -0.000000 -1.000000
vn 0.000000 -0.000000 -1.000000
vn 0.000000 -0.000000 -1.000000
vn 0.000000 -0.000000 -1.000000
vn 0.000000 -0.000000 -1.000000
vn 0.000000 -0.000000 -1.000000
vn 0.000000 -0.000000 -1.000000
vn 0.000000 -0.000000 -1.000000
vn 0.000000 -0.000000 -1.000000
vn 0.000000 -0.000000 -1.000000
vn 0.000000 -0.000000 -1.000000
vn 0.000000 -0.000000 -1.000000
vn 0.000000 -0.000000 -1.000000
vn 0.000000 -0.000000 -1.000000
vn 0.000000 -0.000000 -1.000000
vn 0.000000 -0.000000 -1.000000
vn 0.000000 -0.000000 -1.000000
vn 0.000000 -0.000000 -1.000000
vn 0.000000 -0.000000 -1.000000
vn 0.000000 -0.000000 -1.000000
vn 0.000000 -0.000000 -1.000000
vn 0.000000 -0.000000 -1.000000
vn 0.000000 -0.000000 -1.000000
vn 0.000000 -0.000000 -1.000000
vn 0.000000 -0.000000 -1.000000
vn 0.000000 -0.000000 -1.000000
vn 0.000000 -0.000000 -1.000000
vn 0.000000 -0.000000 -1.000000
vn 0.000000 -0.000000 -1.000000
vn 0.000000 -0.000000 -1.000000
vn 0.000000 -0.000000 -1.000000
vn 0.000000 -0.000000 -1.000000
vn 0.000000 -0.000000 -1.000000
vn 0.000000 -0.000000 -1.000000
vn 0.000000 -0.000000 -1.000000
vn 0.000000 -0.000000 -1.000000
vn 0.000000 -0.000000 -1.000000
vn 0.000000 -0.000000 -1.000000
vn 0.000000 -0.000000 -1.000000
usemtl Capa 1 Material de inflación frontal
f 3/3/3 1/1/1 2/2/2
f 4/4/4 5/5/5 2/2/2
f 6/6/6 7/7/7 4/4/4
f 8/8/8 9/9/9 6/6/6
f 11/11/11 9/9/9 10/10/10
f 12/12/12 11/11/11 13/13/13
f 14/14/14 12/12/12 13/13/13
f 47/47/47 15/15/15 10/10/10
f 18/18/18 16/16/16 17/17/17
f 20/20/20 18/18/18 19/19/19
f 21/21/21 22/22/22 19/19/19
f 23/23/23 24/24/24 21/21/21
f 25/25/25 26/26/26 23/23/23
f 27/27/27 28/28/28 25/25/25
f 29/29/29 30/30/30 45/45/45
f 32/32/32 30/30/30 31/31/31
f 34/34/34 32/32/32 33/33/33
f 35/35/35 34/34/34 36/36/36
f 36/36/36 37/37/37 35/35/35
f 38/38/38 39/39/39 36/36/36
f 41/41/41 39/39/39 40/40/40
f 42/42/42 41/41/41 43/43/43
f 44/44/44 42/42/42 43/43/43
f 45/45/45 46/46/46 29/29/29
f 19/19/19 17/17/17 46/46/46
f 3/3/3 2/2/2 5/5/5
f 5/5/5 4/4/4 7/7/7
f 7/7/7 6/6/6 9/9/9
f 9/9/9 8/8/8 10/10/10
f 47/47/47 10/10/10 8/8/8
f 10/10/10 13/13/13 11/11/11
f 15/15/15 16/16/16 10/10/10
f 10/10/10 16/16/16 13/13/13
f 14/14/14 13/13/13 16/16/16
f 15/15/15 17/17/17 16/16/16
f 17/17/17 19/19/19 18/18/18
f 20/20/20 19/19/19 22/22/22
f 22/22/22 21/21/21 24/24/24
f 24/24/24 23/23/23 26/26/26
f 26/26/26 25/25/25 28/28/28
f 30/30/30 28/28/28 45/45/45
f 27/27/27 45/45/45 28/28/28
f 29/29/29 31/31/31 30/30/30
f 31/31/31 33/33/33 32/32/32
f 36/36/36 34/34/34 38/38/38
f 38/38/38 34/34/34 48/48/48
f 33/33/33 48/48/48 34/34/34
f 37/37/37 36/36/36 39/39/39
f 39/39/39 38/38/38 40/40/40
f 48/48/48 40/40/40 38/38/38
f 40/40/40 43/43/43 41/41/41
f 29/29/29 46/46/46 31/31/31
f 31/31/31 46/46/46 33/33/33
f 33/33/33 46/46/46 48/48/48
f 48/48/48 46/46/46 40/40/40
f 40/40/40 46/46/46 43/43/43
f 44/44/44 43/43/43 46/46/46
f 19/19/19 46/46/46 21/21/21
f 17/17/17 15/15/15 46/46/46
f 21/21/21 46/46/46 23/23/23
f 23/23/23 46/46/46 25/25/25
f 25/25/25 46/46/46 27/27/27
f 45/45/45 27/27/27 46/46/46
f 15/15/15 47/47/47 46/46/46
f 47/47/47 8/8/8 46/46/46
f 8/8/8 6/6/6 46/46/46
f 6/6/6 4/4/4 46/46/46
f 4/4/4 2/2/2 46/46/46
f 1/1/1 46/46/46 2/2/2
usemtl Capa 1 Material de bisel frontal
f 1/1/1 1/1/1 1/1/1
usemtl Capa 1 Material de extrusión
f 68/68/68 49/49/49 50/50/50
f 68/68/68 50/50/50 69/69/69
f 69/69/69 50/50/50 51/51/51
f 69/69/69 51/51/51 70/70/70
f 70/70/70 51/51/51 52/52/52
f 70/70/70 52/52/52 71/71/71
f 71/71/71 52/52/52 53/53/53
f 71/71/71 53/53/53 72/72/72
f 72/72/72 53/53/53 54/54/54
f 72/72/72 54/54/54 73/73/73
f 73/73/73 54/54/54 55/55/55
f 73/73/73 55/55/55 74/74/74
f 74/74/74 55/55/55 56/56/56
f 74/74/74 56/56/56 75/75/75
f 75/75/75 56/56/56 57/57/57
f 75/75/75 57/57/57 76/76/76
f 76/76/76 57/57/57 58/58/58
f 76/76/76 58/58/58 77/77/77
f 77/77/77 58/58/58 59/59/59
f 77/77/77 59/59/59 78/78/78
f 78/78/78 59/59/59 60/60/60
f 78/78/78 60/60/60 79/79/79
f 79/79/79 60/60/60 61/61/61
f 79/79/79 61/61/61 80/80/80
f 80/80/80 61/61/61 62/62/62
f 80/80/80 62/62/62 81/81/81
f 81/81/81 62/62/62 63/63/63
f 81/81/81 63/63/63 82/82/82
f 82/82/82 63/63/63 64/64/64
f 82/82/82 64/64/64 83/83/83
f 83/83/83 64/64/64 65/65/65
f 83/83/83 65/65/65 84/84/84
f 84/84/84 65/65/65 66/66/66
f 84/84/84 66/66/66 85/85/85
f 85/85/85 66/66/66 67/67/67
f 85/85/85 67/67/67 86/86/86
f 93/93/93 87/87/87 88/88/88
f 93/93/93 88/88/88 94/94/94
f 94/94/94 88/88/88 89/89/89
f 94/94/94 89/89/89 95/95/95
f 95/95/95 89/89/89 90/90/90
f 95/95/95 90/90/90 96/96/96
f 96/96/96 90/90/90 91/91/91
f 96/96/96 91/91/91 97/97/97
f 97/97/97 91/91/91 92/92/92
f 97/97/97 92/92/92 98/98/98
f 101/101/101 99/99/99 100/100/100
f 101/101/101 100/100/100 102/102/102
f 105/105/105 103/103/103 104/104/104
f 105/105/105 104/104/104 106/106/106
usemtl Capa 1 Material de bisel posterior
f 1/1/1 1/1/1 1/1/1
usemtl Capa 1 Material de inflación posterior
f 107/107/107 109/109/109 108/108/108
f 111/111/111 110/110/110 108/108/108
f 113/113/113 112/112/112 110/110/110
f 115/115/115 114/114/114 112/112/112
f 115/115/115 117/117/117 116/116/116
f 117/117/117 118/118/118 119/119/119
f 118/118/118 120/120/120 119/119/119
f 121/121/121 153/153/153 116/116/116
f 122/122/122 124/124/124 123/123/123
f 124/124/124 126/126/126 125/125/125
f 128/128/128 127/127/127 125/125/125
f 130/130/130 129/129/129 127/127/127
f 132/132/132 131/131/131 129/129/129
f 134/134/134 133/133/133 131/131/131
f 136/136/136 135/135/135 151/151/151
f 136/136/136 138/138/138 137/137/137
f 138/138/138 140/140/140 139/139/139
f 140/140/140 141/141/141 142/142/142
f 143/143/143 142/142/142 141/141/141
f 145/145/145 144/144/144 142/142/142
f 145/145/145 147/147/147 146/146/146
f 147/147/147 148/148/148 149/149/149
f 148/148/148 150/150/150 149/149/149
f 152/152/152 151/151/151 135/135/135
f 123/123/123 125/125/125 152/152/152
f 108/108/108 109/109/109 111/111/111
f 110/110/110 111/111/111 113/113/113
f 112/112/112 113/113/113 115/115/115
f 114/114/114 115/115/115 116/116/116
f 116/116/116 153/153/153 114/114/114
f 119/119/119 116/116/116 117/117/117
f 122/122/122 121/121/121 116/116/116
f 122/122/122 116/116/116 119/119/119
f 119/119/119 120/120/120 122/122/122
f 123/123/123 121/121/121 122/122/122
f 125/125/125 123/123/123 124/124/124
f 125/125/125 126/126/126 128/128/128
f 127/127/127 128/128/128 130/130/130
f 129/129/129 130/130/130 132/132/132
f 131/131/131 132/132/132 134/134/134
f 134/134/134 136/136/136 151/151/151
f 151/151/151 133/133/133 134/134/134
f 137/137/137 135/135/135 136/136/136
f 139/139/139 137/137/137 138/138/138
f 140/140/140 142/142/142 144/144/144
f 140/140/140 144/144/144 154/154/154
f 154/154/154 139/139/139 140/140/140
f 142/142/142 143/143/143 145/145/145
f 144/144/144 145/145/145 146/146/146
f 146/146/146 154/154/154 144/144/144
f 149/149/149 146/146/146 147/147/147
f 152/152/152 135/135/135 137/137/137
f 152/152/152 137/137/137 139/139/139
f 152/152/152 139/139/139 154/154/154
f 152/152/152 154/154/154 146/146/146
f 152/152/152 146/146/146 149/149/149
f 149/149/149 150/150/150 152/152/152
f 152/152/152 125/125/125 127/127/127
f 121/121/121 123/123/123 152/152/152
f 152/152/152 127/127/127 129/129/129
f 152/152/152 129/129/129 131/131/131
f 152/152/152 131/131/131 133/133/133
f 133/133/133 151/151/151 152/152/152
f 153/153/153 121/121/121 152/152/152
f 114/114/114 153/153/153 152/152/152
f 112/112/112 114/114/114 152/152/152
f 110/110/110 112/112/112 152/152/152
f 108/108/108 110/110/110 152/152/152
f 152/152/152 107/107/107 108/108/108
