mtllib Sin título-1 copia.mtl
v 1.012500 64.996399 0.000000
v 6.913301 63.384113 0.000000
v 7.034400 64.802002 0.000000
v 19.008396 59.380585 0.000000
v 19.729799 63.037102 0.000000
v 31.391735 54.487438 0.000000
v 32.969700 59.636002 0.000000
v 43.979851 48.831779 0.000000
v 46.397697 54.835400 0.000000
v 56.551239 42.575512 0.000000
v 59.662800 48.873802 0.000000
v 68.826477 35.897198 0.000000
v 72.407700 41.987900 0.000000
v 80.512177 28.980453 0.000000
v 84.283195 34.414398 0.000000
v 91.306496 22.009796 0.000000
v 94.932899 26.391800 0.000000
v 100.932777 15.150635 0.000000
v 104.004898 18.157700 0.000000
v 109.225258 8.469814 0.000000
v 111.142799 9.947002 0.000000
v 113.877899 5.924900 0.000000
v 112.769020 5.250965 0.000000
v 115.992897 2.007202 0.000000
v 1.012500 64.996399 0.000000
v 7.034400 64.802002 0.000000
v 19.729799 63.037102 0.000000
v 32.969700 59.636002 0.000000
v 46.397697 54.835400 0.000000
v 59.662800 48.873802 0.000000
v 72.407700 41.987900 0.000000
v 84.283195 34.414398 0.000000
v 94.932899 26.391800 0.000000
v 104.004898 18.157700 0.000000
v 111.142799 9.947002 0.000000
v 113.877899 5.924900 0.000000
v 115.992897 2.007202 0.000000
v 1.012500 64.996399 -62.989197
v 7.034400 64.802002 -62.989197
v 19.729799 63.037102 -62.989197
v 32.969700 59.636002 -62.989197
v 46.397697 54.835400 -62.989197
v 59.662800 48.873802 -62.989197
v 72.407700 41.987900 -62.989197
v 84.283195 34.414398 -62.989197
v 94.932899 26.391800 -62.989197
v 104.004898 18.157700 -62.989197
v 111.142799 9.947002 -62.989197
v 113.877899 5.924900 -62.989197
v 115.992897 2.007202 -62.989197
v 115.992897 2.007202 0.000000
v 1.012500 64.996399 0.000000
v 115.992897 2.007202 -62.989197
v 1.012500 64.996399 -62.989197
v 1.012500 64.996399 -62.989197
v 6.913301 63.384113 -62.989197
v 7.034400 64.802002 -62.989197
v 19.008396 59.380585 -62.989197
v 19.729799 63.037102 -62.989197
v 31.391735 54.487438 -62.989197
v 32.969700 59.636002 -62.989197
v 43.979851 48.831779 -62.989197
v 46.397697 54.835400 -62.989197
v 56.551239 42.575512 -62.989197
v 59.662800 48.873802 -62.989197
v 68.826477 35.897198 -62.989197
v 72.407700 41.987900 -62.989197
v 80.512177 28.980453 -62.989197
v 84.283195 34.414398 -62.989197
v 91.306496 22.009796 -62.989197
v 94.932899 26.391800 -62.989197
v 100.932777 15.150635 -62.989197
v 104.004898 18.157700 -62.989197
v 109.225258 8.469814 -62.989197
v 111.142799 9.947002 -62.989197
v 113.877899 5.924900 -62.989197
v 112.769020 5.250965 -62.989197
v 115.992897 2.007202 -62.989197
vt 0.000000 1.000000
vt 0.051320 0.974404
vt 0.052373 0.996914
vt 0.156513 0.910845
vt 0.162787 0.968895
vt 0.264212 0.833162
vt 0.277936 0.914900
vt 0.373693 0.743375
vt 0.394721 0.838687
vt 0.483028 0.644052
vt 0.510090 0.744042
vt 0.589787 0.538029
vt 0.620934 0.634723
vt 0.691419 0.428220
vt 0.724216 0.514488
vt 0.785299 0.317556
vt 0.816838 0.387124
vt 0.869020 0.208662
vt 0.895739 0.256401
vt 0.941141 0.102599
vt 0.957818 0.126050
vt 0.981606 0.062196
vt 0.971961 0.051497
vt 1.000000 0.000000
vt 1.000000 1.000000
vt 0.977415 1.000000
vt 0.929368 1.000000
vt 0.878127 1.000000
vt 0.824671 1.000000
vt 0.770156 1.000000
vt 0.715854 1.000000
vt 0.663056 1.000000
vt 0.613076 1.000000
vt 0.567150 1.000000
vt 0.526368 1.000000
vt 0.508135 1.000000
vt 0.491446 1.000000
vt 1.000000 0.500000
vt 0.977415 0.500000
vt 0.929368 0.500000
vt 0.878127 0.500000
vt 0.824671 0.500000
vt 0.770156 0.500000
vt 0.715854 0.500000
vt 0.663056 0.500000
vt 0.613076 0.500000
vt 0.567150 0.500000
vt 0.526368 0.500000
vt 0.508135 0.500000
vt 0.491446 0.500000
vt 0.491446 1.000000
vt 0.000000 1.000000
vt 0.491446 0.500000
vt 0.000000 0.500000
vt 0.000000 1.000000
vt 0.051320 0.974404
vt 0.052373 0.996914
vt 0.156513 0.910845
vt 0.162787 0.968895
vt 0.264212 0.833162
vt 0.277936 0.914900
vt 0.373693 0.743375
vt 0.394721 0.838687
vt 0.483028 0.644052
vt 0.510090 0.744042
vt 0.589787 0.538029
vt 0.620934 0.634723
vt 0.691419 0.428220
vt 0.724216 0.514488
vt 0.785299 0.317556
vt 0.816838 0.387124
vt 0.869020 0.208662
vt 0.895739 0.256401
vt 0.941141 0.102599
vt 0.957818 0.126050
vt 0.981606 0.062196
vt 0.971961 0.051497
vt 1.000000 0.000000
vn 0.000000 -0.000000 1.000000
vn 0.000000 -0.000000 1.000000
vn 0.000000 -0.000000 1.000000
vn 0.000000 -0.000000 1.000000
vn 0.000000 -0.000000 1.000000
vn 0.000000 -0.000000 1.000000
vn 0.000000 -0.000000 1.000000
vn 0.000000 -0.000000 1.000000
vn 0.000000 -0.000000 1.000000
vn 0.000000 -0.000000 1.000000
vn 0.000000 -0.000000 1.000000
vn 0.000000 -0.000000 1.000000
vn 0.000000 -0.000000 1.000000
vn 0.000000 -0.000000 1.000000
vn 0.000000 -0.000000 1.000000
vn 0.000000 -0.000000 1.000000
vn 0.000000 -0.000000 1.000000
vn 0.000000 -0.000000 1.000000
vn 0.000000 -0.000000 1.000000
vn 0.000000 -0.000000 1.000000
vn 0.000000 -0.000000 1.000000
vn 0.000000 -0.000000 1.000000
vn 0.000000 -0.000000 1.000000
vn 0.000000 -0.000000 1.000000
vn 0.032265 0.999479 0.000000
vn 0.085099 0.996373 0.000000
vn 0.193560 0.981088 0.000000
vn 0.293032 0.956103 0.000000
vn 0.373574 0.927600 0.000000
vn 0.442929 0.896557 0.000000
vn 0.506855 0.862031 0.000000
vn 0.570131 0.821554 0.000000
vn 0.637555 0.770405 0.000000
vn 0.714633 0.699499 0.000000
vn 0.792193 0.610271 0.000000
vn 0.854554 0.519363 0.000000
vn 0.879958 0.475052 0.000000
vn 0.032265 0.999479 0.000000
vn 0.085099 0.996373 0.000000
vn 0.193560 0.981088 0.000000
vn 0.293032 0.956103 0.000000
vn 0.373574 0.927600 0.000000
vn 0.442929 0.896557 0.000000
vn 0.506855 0.862031 0.000000
vn 0.570131 0.821554 0.000000
vn 0.637555 0.770405 0.000000
vn 0.714633 0.699499 0.000000
vn 0.792193 0.610271 0.000000
vn 0.854554 0.519363 0.000000
vn 0.879958 0.475052 0.000000
vn -0.480454 -0.877020 0.000000
vn -0.480454 -0.877020 0.000000
vn -0.480454 -0.877020 0.000000
vn -0.480454 -0.877020 0.000000
vn 0.000000 -0.000000 -1.000000
vn 0.000000 -0.000000 -1.000000
vn 0.000000 -0.000000 -1.000000
vn 0.000000 -0.000000 -1.000000
vn 0.000000 -0.000000 -1.000000
vn 0.000000 -0.000000 -1.000000
vn 0.000000 -0.000000 -1.000000
vn 0.000000 -0.000000 -1.000000
vn 0.000000 -0.000000 -1.000000
vn 0.000000 -0.000000 -1.000000
vn 0.000000 -0.000000 -1.000000
vn 0.000000 -0.000000 -1.000000
vn 0.000000 -0.000000 -1.000000
vn 0.000000 -0.000000 -1.000000
vn 0.000000 -0.000000 -1.000000
vn 0.000000 -0.000000 -1.000000
vn 0.000000 -0.000000 -1.000000
vn 0.000000 -0.000000 -1.000000
vn 0.000000 -0.000000 -1.000000
vn 0.000000 -0.000000 -1.000000
vn 0.000000 -0.000000 -1.000000
vn 0.000000 -0.000000 -1.000000
vn 0.000000 -0.000000 -1.000000
vn 0.000000 -0.000000 -1.000000
usemtl Capa 1 Material de inflación frontal
f 3/3/3 1/1/1 2/2/2
f 4/4/4 5/5/5 2/2/2
f 6/6/6 7/7/7 4/4/4
f 8/8/8 9/9/9 6/6/6
f 10/10/10 11/11/11 8/8/8
f 12/12/12 13/13/13 10/10/10
f 15/15/15 13/13/13 14/14/14
f 17/17/17 15/15/15 16/16/16
f 19/19/19 17/17/17 18/18/18
f 21/21/21 19/19/19 20/20/20
f 22/22/22 21/21/21 23/23/23
f 24/24/24 22/22/22 23/23/23
f 10/10/10 8/8/8 2/2/2
f 3/3/3 2/2/2 5/5/5
f 5/5/5 4/4/4 7/7/7
f 7/7/7 6/6/6 9/9/9
f 9/9/9 8/8/8 11/11/11
f 11/11/11 10/10/10 13/13/13
f 12/12/12 14/14/14 13/13/13
f 14/14/14 16/16/16 15/15/15
f 16/16/16 18/18/18 17/17/17
f 18/18/18 20/20/20 19/19/19
f 20/20/20 23/23/23 21/21/21
f 10/10/10 2/2/2 12/12/12
f 8/8/8 6/6/6 2/2/2
f 12/12/12 2/2/2 14/14/14
f 14/14/14 2/2/2 16/16/16
f 16/16/16 2/2/2 18/18/18
f 18/18/18 2/2/2 20/20/20
f 2/2/2 1/1/1 20/20/20
f 20/20/20 1/1/1 23/23/23
f 24/24/24 23/23/23 1/1/1
f 4/4/4 2/2/2 6/6/6
usemtl Capa 1 Material de bisel frontal
f 1/1/1 1/1/1 1/1/1
usemtl Capa 1 Material de extrusión
f 38/38/38 25/25/25 26/26/26
f 38/38/38 26/26/26 39/39/39
f 39/39/39 26/26/26 27/27/27
f 39/39/39 27/27/27 40/40/40
f 40/40/40 27/27/27 28/28/28
f 40/40/40 28/28/28 41/41/41
f 41/41/41 28/28/28 29/29/29
f 41/41/41 29/29/29 42/42/42
f 42/42/42 29/29/29 30/30/30
f 42/42/42 30/30/30 43/43/43
f 43/43/43 30/30/30 31/31/31
f 43/43/43 31/31/31 44/44/44
f 44/44/44 31/31/31 32/32/32
f 44/44/44 32/32/32 45/45/45
f 45/45/45 32/32/32 33/33/33
f 45/45/45 33/33/33 46/46/46
f 46/46/46 33/33/33 34/34/34
f 46/46/46 34/34/34 47/47/47
f 47/47/47 34/34/34 35/35/35
f 47/47/47 35/35/35 48/48/48
f 48/48/48 35/35/35 36/36/36
f 48/48/48 36/36/36 49/49/49
f 49/49/49 36/36/36 37/37/37
f 49/49/49 37/37/37 50/50/50
f 53/53/53 51/51/51 52/52/52
f 53/53/53 52/52/52 54/54/54
usemtl Capa 1 Material de bisel posterior
f 1/1/1 1/1/1 1/1/1
usemtl Capa 1 Material de inflación posterior
f 55/55/55 57/57/57 56/56/56
f 59/59/59 58/58/58 56/56/56
f 61/61/61 60/60/60 58/58/58
f 63/63/63 62/62/62 60/60/60
f 65/65/65 64/64/64 62/62/62
f 67/67/67 66/66/66 64/64/64
f 67/67/67 69/69/69 68/68/68
f 69/69/69 71/71/71 70/70/70
f 71/71/71 73/73/73 72/72/72
f 73/73/73 75/75/75 74/74/74
f 75/75/75 76/76/76 77/77/77
f 76/76/76 78/78/78 77/77/77
f 62/62/62 64/64/64 56/56/56
f 56/56/56 57/57/57 59/59/59
f 58/58/58 59/59/59 61/61/61
f 60/60/60 61/61/61 63/63/63
f 62/62/62 63/63/63 65/65/65
f 64/64/64 65/65/65 67/67/67
f 68/68/68 66/66/66 67/67/67
f 70/70/70 68/68/68 69/69/69
f 72/72/72 70/70/70 71/71/71
f 74/74/74 72/72/72 73/73/73
f 77/77/77 74/74/74 75/75/75
f 56/56/56 64/64/64 66/66/66
f 60/60/60 62/62/62 56/56/56
f 56/56/56 66/66/66 68/68/68
f 56/56/56 68/68/68 70/70/70
f 56/56/56 70/70/70 72/72/72
f 56/56/56 72/72/72 74/74/74
f 55/55/55 56/56/56 74/74/74
f 55/55/55 74/74/74 77/77/77
f 77/77/77 78/78/78 55/55/55
f 56/56/56 58/58/58 60/60/60
